<ttFont>
    <TTGlyph name=".notdef" xMin="193" yMin="0" xMax="1034" yMax="1462">
      <contour>
        <pt x="193" y="1462" on="1"/>
        <pt x="1034" y="1462" on="1"/>
        <pt x="1034" y="0" on="1"/>
        <pt x="193" y="0" on="1"/>
      </contour>
      <contour>
        <pt x="297" y="104" on="1"/>
        <pt x="930" y="104" on="1"/>
        <pt x="930" y="1358" on="1"/>
        <pt x="297" y="1358" on="1"/>
      </contour>
    </TTGlyph>
    <TTGlyph name="afii57440" xMin="-80" yMin="0" xMax="767" yMax="155">
      <contour>
        <pt x="1" y="0" on="1"/>
        <pt x="-33" y="0" on="0"/>
        <pt x="-80" y="41" on="0"/>
        <pt x="-80" y="78" on="1"/>
        <pt x="-80" y="114" on="0"/>
        <pt x="-33" y="155" on="0"/>
        <pt x="1" y="155" on="1"/>
        <pt x="767" y="155" on="1"/>
        <pt x="767" y="0" on="1"/>
      </contour>
    </TTGlyph>
    <TTGlyph name="glyph00006" xMin="140" yMin="-94" xMax="954" yMax="672">
      <component glyphName="uni0840" x="0" y="0" flags="0x204"/>
    </TTGlyph>
    <TTGlyph name="glyph00007" xMin="130" yMin="0" xMax="1117" yMax="670">
      <contour>
        <pt x="809" y="155" on="1"/>
        <pt x="805" y="289" on="0"/>
        <pt x="757" y="450" on="0"/>
        <pt x="665" y="520" on="0"/>
        <pt x="583" y="520" on="1"/>
        <pt x="505" y="520" on="0"/>
        <pt x="365" y="432" on="0"/>
        <pt x="279" y="289" on="0"/>
        <pt x="279" y="223" on="1"/>
        <pt x="279" y="194" on="0"/>
        <pt x="316" y="155" on="0"/>
        <pt x="354" y="155" on="1"/>
      </contour>
      <contour>
        <pt x="1117" y="155" on="1"/>
        <pt x="1117" y="0" on="1"/>
        <pt x="335" y="0" on="1"/>
        <pt x="238" y="0" on="0"/>
        <pt x="130" y="103" on="0"/>
        <pt x="130" y="191" on="1"/>
        <pt x="130" y="314" on="0"/>
        <pt x="254" y="537" on="0"/>
        <pt x="471" y="670" on="0"/>
        <pt x="597" y="670" on="1"/>
        <pt x="957" y="670" on="0"/>
        <pt x="966" y="155" on="1"/>
      </contour>
    </TTGlyph>
    <TTGlyph name="glyph00009" xMin="100" yMin="0" xMax="1731" yMax="1023">
      <component glyphName="uni0841" x="0" y="0" flags="0x204"/>
    </TTGlyph>
    <TTGlyph name="glyph00010" xMin="100" yMin="0" xMax="1781" yMax="1023">
      <contour>
        <pt x="1097" y="486" on="1"/>
        <pt x="1097" y="155" on="1"/>
        <pt x="1781" y="155" on="1"/>
        <pt x="1781" y="0" on="1"/>
        <pt x="100" y="0" on="1"/>
        <pt x="100" y="155" on="1"/>
        <pt x="947" y="155" on="1"/>
        <pt x="947" y="486" on="1"/>
        <pt x="409" y="486" on="1"/>
        <pt x="409" y="613" on="1"/>
        <pt x="449" y="644" on="0"/>
        <pt x="551" y="765" on="1"/>
        <pt x="768" y="1019" on="1"/>
        <pt x="880" y="946" on="1"/>
        <pt x="710" y="744" on="0"/>
        <pt x="633" y="665" on="0"/>
        <pt x="598" y="636" on="1"/>
        <pt x="1129" y="636" on="1"/>
        <pt x="1279" y="636" on="0"/>
        <pt x="1418" y="668" on="0"/>
        <pt x="1477" y="743" on="0"/>
        <pt x="1477" y="821" on="1"/>
        <pt x="1477" y="895" on="0"/>
        <pt x="1464" y="986" on="1"/>
        <pt x="1605" y="1023" on="1"/>
        <pt x="1625" y="943" on="0"/>
        <pt x="1625" y="838" on="1"/>
        <pt x="1625" y="650" on="0"/>
        <pt x="1411" y="486" on="0"/>
        <pt x="1175" y="486" on="1"/>
      </contour>
    </TTGlyph>
    <TTGlyph name="glyph00011" xMin="-81" yMin="0" xMax="1488" yMax="1023">
      <contour>
        <pt x="853" y="486" on="1"/>
        <pt x="853" y="155" on="1"/>
        <pt x="1488" y="155" on="1"/>
        <pt x="1488" y="0" on="1"/>
        <pt x="0" y="0" on="1"/>
        <pt x="-34" y="0" on="0"/>
        <pt x="-81" y="41" on="0"/>
        <pt x="-81" y="78" on="1"/>
        <pt x="-81" y="114" on="0"/>
        <pt x="-34" y="155" on="0"/>
        <pt x="0" y="155" on="1"/>
        <pt x="703" y="155" on="1"/>
        <pt x="703" y="486" on="1"/>
        <pt x="165" y="486" on="1"/>
        <pt x="165" y="613" on="1"/>
        <pt x="205" y="644" on="0"/>
        <pt x="307" y="765" on="1"/>
        <pt x="524" y="1019" on="1"/>
        <pt x="636" y="946" on="1"/>
        <pt x="466" y="744" on="0"/>
        <pt x="389" y="665" on="0"/>
        <pt x="354" y="636" on="1"/>
        <pt x="885" y="636" on="1"/>
        <pt x="1035" y="636" on="0"/>
        <pt x="1174" y="668" on="0"/>
        <pt x="1233" y="743" on="0"/>
        <pt x="1233" y="821" on="1"/>
        <pt x="1233" y="895" on="0"/>
        <pt x="1220" y="986" on="1"/>
        <pt x="1361" y="1023" on="1"/>
        <pt x="1381" y="943" on="0"/>
        <pt x="1381" y="838" on="1"/>
        <pt x="1381" y="650" on="0"/>
        <pt x="1167" y="486" on="0"/>
        <pt x="931" y="486" on="1"/>
      </contour>
    </TTGlyph>
    <TTGlyph name="glyph00012" xMin="-81" yMin="0" xMax="1537" yMax="1023">
      <contour>
        <pt x="853" y="486" on="1"/>
        <pt x="853" y="155" on="1"/>
        <pt x="1537" y="155" on="1"/>
        <pt x="1537" y="0" on="1"/>
        <pt x="0" y="0" on="1"/>
        <pt x="-34" y="0" on="0"/>
        <pt x="-81" y="40" on="0"/>
        <pt x="-81" y="77" on="1"/>
        <pt x="-81" y="113" on="0"/>
        <pt x="-34" y="155" on="0"/>
        <pt x="0" y="155" on="1"/>
        <pt x="703" y="155" on="1"/>
        <pt x="703" y="486" on="1"/>
        <pt x="165" y="486" on="1"/>
        <pt x="165" y="613" on="1"/>
        <pt x="181" y="625" on="0"/>
        <pt x="256" y="705" on="0"/>
        <pt x="523" y="1019" on="1"/>
        <pt x="636" y="946" on="1"/>
        <pt x="510" y="796" on="1"/>
        <pt x="423" y="693" on="0"/>
        <pt x="353" y="636" on="1"/>
        <pt x="885" y="636" on="1"/>
        <pt x="1035" y="636" on="0"/>
        <pt x="1174" y="668" on="0"/>
        <pt x="1233" y="743" on="0"/>
        <pt x="1233" y="821" on="1"/>
        <pt x="1233" y="888" on="0"/>
        <pt x="1219" y="986" on="1"/>
        <pt x="1361" y="1023" on="1"/>
        <pt x="1381" y="943" on="0"/>
        <pt x="1381" y="838" on="1"/>
        <pt x="1381" y="650" on="0"/>
        <pt x="1167" y="486" on="0"/>
        <pt x="931" y="486" on="1"/>
      </contour>
    </TTGlyph>
    <TTGlyph name="glyph00014" xMin="100" yMin="0" xMax="876" yMax="1462">
      <component glyphName="uni0842" x="0" y="0" flags="0x204"/>
    </TTGlyph>
    <TTGlyph name="glyph00015" xMin="100" yMin="0" xMax="1064" yMax="1462">
      <contour>
        <pt x="418" y="1075" on="1"/>
        <pt x="418" y="1034" on="0"/>
        <pt x="424" y="1009" on="1"/>
        <pt x="460" y="998" on="0"/>
        <pt x="536" y="998" on="1"/>
        <pt x="641" y="998" on="0"/>
        <pt x="751" y="1072" on="0"/>
        <pt x="751" y="1140" on="1"/>
        <pt x="751" y="1219" on="0"/>
        <pt x="663" y="1317" on="0"/>
        <pt x="593" y="1317" on="1"/>
        <pt x="516" y="1317" on="0"/>
        <pt x="418" y="1183" on="0"/>
      </contour>
      <contour>
        <pt x="100" y="0" on="1"/>
        <pt x="100" y="155" on="1"/>
        <pt x="739" y="155" on="1"/>
        <pt x="636" y="282" on="1"/>
        <pt x="266" y="736" on="0"/>
        <pt x="266" y="1064" on="1"/>
        <pt x="266" y="1169" on="0"/>
        <pt x="348" y="1354" on="0"/>
        <pt x="494" y="1462" on="0"/>
        <pt x="593" y="1462" on="1"/>
        <pt x="681" y="1462" on="0"/>
        <pt x="822" y="1374" on="0"/>
        <pt x="898" y="1224" on="0"/>
        <pt x="898" y="1135" on="1"/>
        <pt x="898" y="1003" on="0"/>
        <pt x="718" y="861" on="0"/>
        <pt x="550" y="861" on="1"/>
        <pt x="451" y="866" on="1"/>
        <pt x="498" y="731" on="0"/>
        <pt x="786" y="324" on="0"/>
        <pt x="942" y="155" on="1"/>
        <pt x="1064" y="155" on="1"/>
        <pt x="1064" y="0" on="1"/>
      </contour>
    </TTGlyph>
    <TTGlyph name="glyph00016" xMin="-81" yMin="0" xMax="888" yMax="1462">
      <contour>
        <pt x="362" y="1075" on="1"/>
        <pt x="362" y="1034" on="0"/>
        <pt x="368" y="1009" on="1"/>
        <pt x="404" y="998" on="0"/>
        <pt x="480" y="998" on="1"/>
        <pt x="585" y="998" on="0"/>
        <pt x="695" y="1072" on="0"/>
        <pt x="695" y="1140" on="1"/>
        <pt x="695" y="1219" on="0"/>
        <pt x="607" y="1317" on="0"/>
        <pt x="537" y="1317" on="1"/>
        <pt x="460" y="1317" on="0"/>
        <pt x="362" y="1183" on="0"/>
      </contour>
      <contour>
        <pt x="0" y="0" on="1"/>
        <pt x="-34" y="0" on="0"/>
        <pt x="-81" y="41" on="0"/>
        <pt x="-81" y="78" on="1"/>
        <pt x="-81" y="114" on="0"/>
        <pt x="-34" y="155" on="0"/>
        <pt x="0" y="155" on="1"/>
        <pt x="683" y="155" on="1"/>
        <pt x="580" y="282" on="1"/>
        <pt x="210" y="736" on="0"/>
        <pt x="210" y="1064" on="1"/>
        <pt x="210" y="1169" on="0"/>
        <pt x="292" y="1354" on="0"/>
        <pt x="438" y="1462" on="0"/>
        <pt x="537" y="1462" on="1"/>
        <pt x="625" y="1462" on="0"/>
        <pt x="766" y="1374" on="0"/>
        <pt x="842" y="1224" on="0"/>
        <pt x="842" y="1135" on="1"/>
        <pt x="842" y="1003" on="0"/>
        <pt x="662" y="861" on="0"/>
        <pt x="494" y="861" on="1"/>
        <pt x="395" y="866" on="1"/>
        <pt x="442" y="731" on="0"/>
        <pt x="726" y="328" on="0"/>
        <pt x="888" y="153" on="1"/>
        <pt x="888" y="0" on="1"/>
      </contour>
    </TTGlyph>
    <TTGlyph name="glyph00017" xMin="-81" yMin="0" xMax="1008" yMax="1462">
      <contour>
        <pt x="362" y="1075" on="1"/>
        <pt x="362" y="1034" on="0"/>
        <pt x="368" y="1009" on="1"/>
        <pt x="404" y="998" on="0"/>
        <pt x="480" y="998" on="1"/>
        <pt x="585" y="998" on="0"/>
        <pt x="695" y="1072" on="0"/>
        <pt x="695" y="1140" on="1"/>
        <pt x="695" y="1219" on="0"/>
        <pt x="607" y="1317" on="0"/>
        <pt x="537" y="1317" on="1"/>
        <pt x="460" y="1317" on="0"/>
        <pt x="362" y="1183" on="0"/>
      </contour>
      <contour>
        <pt x="0" y="0" on="1"/>
        <pt x="-34" y="0" on="0"/>
        <pt x="-81" y="41" on="0"/>
        <pt x="-81" y="78" on="1"/>
        <pt x="-81" y="114" on="0"/>
        <pt x="-34" y="155" on="0"/>
        <pt x="0" y="155" on="1"/>
        <pt x="683" y="155" on="1"/>
        <pt x="580" y="282" on="1"/>
        <pt x="210" y="736" on="0"/>
        <pt x="210" y="1064" on="1"/>
        <pt x="210" y="1169" on="0"/>
        <pt x="292" y="1354" on="0"/>
        <pt x="438" y="1462" on="0"/>
        <pt x="537" y="1462" on="1"/>
        <pt x="625" y="1462" on="0"/>
        <pt x="766" y="1374" on="0"/>
        <pt x="842" y="1224" on="0"/>
        <pt x="842" y="1135" on="1"/>
        <pt x="842" y="1003" on="0"/>
        <pt x="662" y="861" on="0"/>
        <pt x="494" y="861" on="1"/>
        <pt x="395" y="866" on="1"/>
        <pt x="442" y="731" on="0"/>
        <pt x="730" y="324" on="0"/>
        <pt x="886" y="155" on="1"/>
        <pt x="1008" y="155" on="1"/>
        <pt x="1008" y="0" on="1"/>
      </contour>
    </TTGlyph>
    <TTGlyph name="glyph00019" xMin="100" yMin="0" xMax="1185" yMax="1009">
      <component glyphName="uni0843" x="0" y="0" flags="0x204"/>
    </TTGlyph>
    <TTGlyph name="glyph00020" xMin="100" yMin="0" xMax="1407" yMax="1009">
      <contour>
        <pt x="100" y="155" on="1"/>
        <pt x="1045" y="155" on="1"/>
        <pt x="1045" y="486" on="1"/>
        <pt x="459" y="486" on="1"/>
        <pt x="459" y="1009" on="1"/>
        <pt x="610" y="1009" on="1"/>
        <pt x="610" y="636" on="1"/>
        <pt x="1045" y="636" on="1"/>
        <pt x="1045" y="1009" on="1"/>
        <pt x="1195" y="1009" on="1"/>
        <pt x="1195" y="155" on="1"/>
        <pt x="1407" y="155" on="1"/>
        <pt x="1407" y="0" on="1"/>
        <pt x="100" y="0" on="1"/>
      </contour>
    </TTGlyph>
    <TTGlyph name="glyph00021" xMin="-81" yMin="0" xMax="923" yMax="1009">
      <contour>
        <pt x="0" y="0" on="1"/>
        <pt x="-34" y="0" on="0"/>
        <pt x="-81" y="41" on="0"/>
        <pt x="-81" y="78" on="1"/>
        <pt x="-81" y="114" on="0"/>
        <pt x="-34" y="155" on="0"/>
        <pt x="0" y="155" on="1"/>
        <pt x="773" y="155" on="1"/>
        <pt x="773" y="486" on="1"/>
        <pt x="188" y="486" on="1"/>
        <pt x="188" y="1009" on="1"/>
        <pt x="338" y="1009" on="1"/>
        <pt x="338" y="636" on="1"/>
        <pt x="773" y="636" on="1"/>
        <pt x="773" y="1009" on="1"/>
        <pt x="923" y="1009" on="1"/>
        <pt x="923" y="0" on="1"/>
      </contour>
    </TTGlyph>
    <TTGlyph name="glyph00022" xMin="-81" yMin="0" xMax="1136" yMax="1009">
      <contour>
        <pt x="0" y="0" on="1"/>
        <pt x="-33" y="0" on="0"/>
        <pt x="-81" y="41" on="0"/>
        <pt x="-81" y="78" on="1"/>
        <pt x="-81" y="114" on="0"/>
        <pt x="-33" y="155" on="0"/>
        <pt x="0" y="155" on="1"/>
        <pt x="773" y="155" on="1"/>
        <pt x="773" y="486" on="1"/>
        <pt x="188" y="486" on="1"/>
        <pt x="188" y="1009" on="1"/>
        <pt x="338" y="1009" on="1"/>
        <pt x="338" y="636" on="1"/>
        <pt x="773" y="636" on="1"/>
        <pt x="773" y="1009" on="1"/>
        <pt x="924" y="1009" on="1"/>
        <pt x="924" y="155" on="1"/>
        <pt x="1136" y="155" on="1"/>
        <pt x="1136" y="0" on="1"/>
      </contour>
    </TTGlyph>
    <TTGlyph name="glyph00024" xMin="100" yMin="0" xMax="1715" yMax="468">
      <component glyphName="uni0844" x="0" y="0" flags="0x204"/>
    </TTGlyph>
    <TTGlyph name="glyph00025" xMin="100" yMin="0" xMax="1534" yMax="412">
      <contour>
        <pt x="954" y="0" on="1"/>
        <pt x="793" y="0" on="0"/>
        <pt x="719" y="121" on="1"/>
        <pt x="675" y="66" on="0"/>
        <pt x="503" y="0" on="0"/>
        <pt x="381" y="0" on="1"/>
        <pt x="100" y="0" on="1"/>
        <pt x="100" y="155" on="1"/>
        <pt x="399" y="155" on="1"/>
        <pt x="533" y="155" on="0"/>
        <pt x="662" y="261" on="0"/>
        <pt x="667" y="386" on="1"/>
        <pt x="805" y="402" on="1"/>
        <pt x="807" y="379" on="1"/>
        <pt x="807" y="356" on="1"/>
        <pt x="807" y="315" on="0"/>
        <pt x="801" y="276" on="1"/>
        <pt x="810" y="220" on="0"/>
        <pt x="889" y="155" on="0"/>
        <pt x="945" y="155" on="1"/>
        <pt x="1129" y="155" on="0"/>
        <pt x="1129" y="396" on="1"/>
        <pt x="1268" y="412" on="1"/>
        <pt x="1270" y="384" on="1"/>
        <pt x="1270" y="356" on="1"/>
        <pt x="1270" y="310" on="0"/>
        <pt x="1263" y="275" on="1"/>
        <pt x="1277" y="216" on="0"/>
        <pt x="1405" y="155" on="0"/>
        <pt x="1499" y="155" on="1"/>
        <pt x="1534" y="155" on="1"/>
        <pt x="1534" y="0" on="1"/>
        <pt x="1493" y="0" on="1"/>
        <pt x="1384" y="0" on="0"/>
        <pt x="1228" y="66" on="0"/>
        <pt x="1192" y="127" on="1"/>
        <pt x="1107" y="0" on="0"/>
      </contour>
    </TTGlyph>
    <TTGlyph name="glyph00026" xMin="-81" yMin="0" xMax="1374" yMax="468">
      <contour>
        <pt x="0" y="0" on="1"/>
        <pt x="-33" y="0" on="0"/>
        <pt x="-81" y="41" on="0"/>
        <pt x="-81" y="78" on="1"/>
        <pt x="-81" y="114" on="0"/>
        <pt x="-33" y="155" on="0"/>
        <pt x="0" y="155" on="1"/>
        <pt x="80" y="155" on="1"/>
        <pt x="207" y="155" on="0"/>
        <pt x="326" y="261" on="0"/>
        <pt x="326" y="386" on="1"/>
        <pt x="464" y="402" on="1"/>
        <pt x="466" y="379" on="1"/>
        <pt x="466" y="356" on="1"/>
        <pt x="466" y="315" on="0"/>
        <pt x="460" y="276" on="1"/>
        <pt x="469" y="220" on="0"/>
        <pt x="548" y="155" on="0"/>
        <pt x="604" y="155" on="1"/>
        <pt x="788" y="155" on="0"/>
        <pt x="788" y="396" on="1"/>
        <pt x="927" y="412" on="1"/>
        <pt x="929" y="384" on="1"/>
        <pt x="929" y="356" on="1"/>
        <pt x="929" y="316" on="0"/>
        <pt x="921" y="268" on="1"/>
        <pt x="927" y="216" on="0"/>
        <pt x="1001" y="155" on="0"/>
        <pt x="1053" y="155" on="1"/>
        <pt x="1229" y="155" on="0"/>
        <pt x="1229" y="377" on="1"/>
        <pt x="1229" y="410" on="0"/>
        <pt x="1225" y="440" on="1"/>
        <pt x="1360" y="468" on="1"/>
        <pt x="1374" y="416" on="0"/>
        <pt x="1374" y="349" on="1"/>
        <pt x="1374" y="193" on="0"/>
        <pt x="1207" y="0" on="0"/>
        <pt x="1065" y="0" on="1"/>
        <pt x="908" y="0" on="0"/>
        <pt x="847" y="122" on="1"/>
        <pt x="763" y="0" on="0"/>
        <pt x="613" y="0" on="1"/>
        <pt x="457" y="0" on="0"/>
        <pt x="383" y="121" on="1"/>
        <pt x="286" y="0" on="0"/>
        <pt x="60" y="0" on="1"/>
      </contour>
    </TTGlyph>
    <TTGlyph name="glyph00027" xMin="-81" yMin="0" xMax="1193" yMax="412">
      <contour>
        <pt x="613" y="0" on="1"/>
        <pt x="457" y="0" on="0"/>
        <pt x="383" y="121" on="1"/>
        <pt x="286" y="0" on="0"/>
        <pt x="60" y="0" on="1"/>
        <pt x="0" y="0" on="1"/>
        <pt x="-33" y="0" on="0"/>
        <pt x="-81" y="41" on="0"/>
        <pt x="-81" y="78" on="1"/>
        <pt x="-81" y="114" on="0"/>
        <pt x="-33" y="155" on="0"/>
        <pt x="0" y="155" on="1"/>
        <pt x="80" y="155" on="1"/>
        <pt x="207" y="155" on="0"/>
        <pt x="326" y="261" on="0"/>
        <pt x="326" y="386" on="1"/>
        <pt x="464" y="402" on="1"/>
        <pt x="466" y="379" on="1"/>
        <pt x="466" y="356" on="1"/>
        <pt x="466" y="315" on="0"/>
        <pt x="460" y="276" on="1"/>
        <pt x="469" y="220" on="0"/>
        <pt x="548" y="155" on="0"/>
        <pt x="604" y="155" on="1"/>
        <pt x="788" y="155" on="0"/>
        <pt x="788" y="396" on="1"/>
        <pt x="927" y="412" on="1"/>
        <pt x="929" y="384" on="1"/>
        <pt x="929" y="356" on="1"/>
        <pt x="929" y="310" on="0"/>
        <pt x="922" y="275" on="1"/>
        <pt x="936" y="216" on="0"/>
        <pt x="1064" y="155" on="0"/>
        <pt x="1158" y="155" on="1"/>
        <pt x="1193" y="155" on="1"/>
        <pt x="1193" y="0" on="1"/>
        <pt x="1152" y="0" on="1"/>
        <pt x="1043" y="0" on="0"/>
        <pt x="887" y="66" on="0"/>
        <pt x="851" y="127" on="1"/>
        <pt x="766" y="0" on="0"/>
      </contour>
    </TTGlyph>
    <TTGlyph name="glyph00029" xMin="100" yMin="0" xMax="683" yMax="690">
      <component glyphName="uni0845" x="0" y="0" flags="0x204"/>
    </TTGlyph>
    <TTGlyph name="glyph00030" xMin="100" yMin="0" xMax="949" yMax="636">
      <contour>
        <pt x="100" y="155" on="1"/>
        <pt x="585" y="155" on="1"/>
        <pt x="585" y="636" on="1"/>
        <pt x="735" y="636" on="1"/>
        <pt x="735" y="155" on="1"/>
        <pt x="949" y="155" on="1"/>
        <pt x="949" y="0" on="1"/>
        <pt x="100" y="0" on="1"/>
      </contour>
    </TTGlyph>
    <TTGlyph name="glyph00031" xMin="-81" yMin="0" xMax="432" yMax="690">
      <contour>
        <pt x="0" y="0" on="1"/>
        <pt x="-34" y="0" on="0"/>
        <pt x="-81" y="41" on="0"/>
        <pt x="-81" y="78" on="1"/>
        <pt x="-81" y="114" on="0"/>
        <pt x="-34" y="155" on="0"/>
        <pt x="0" y="155" on="1"/>
        <pt x="108" y="155" on="1"/>
        <pt x="204" y="155" on="0"/>
        <pt x="282" y="216" on="0"/>
        <pt x="282" y="282" on="1"/>
        <pt x="282" y="396" on="0"/>
        <pt x="165" y="600" on="1"/>
        <pt x="290" y="690" on="1"/>
        <pt x="359" y="583" on="0"/>
        <pt x="432" y="363" on="0"/>
        <pt x="432" y="271" on="1"/>
        <pt x="432" y="0" on="0"/>
        <pt x="113" y="0" on="1"/>
      </contour>
    </TTGlyph>
    <TTGlyph name="glyph00032" xMin="-79" yMin="0" xMax="585" yMax="636">
      <contour>
        <pt x="0" y="0" on="1"/>
        <pt x="-33" y="0" on="0"/>
        <pt x="-79" y="41" on="0"/>
        <pt x="-79" y="78" on="1"/>
        <pt x="-79" y="114" on="0"/>
        <pt x="-33" y="155" on="0"/>
        <pt x="0" y="155" on="1"/>
        <pt x="221" y="155" on="1"/>
        <pt x="221" y="636" on="1"/>
        <pt x="371" y="636" on="1"/>
        <pt x="371" y="155" on="1"/>
        <pt x="585" y="155" on="1"/>
        <pt x="585" y="0" on="1"/>
      </contour>
    </TTGlyph>
    <TTGlyph name="glyph00034" xMin="180" yMin="-326" xMax="330" yMax="1422">
      <component glyphName="uni0846" x="0" y="0" flags="0x204"/>
    </TTGlyph>
    <TTGlyph name="glyph00035" xMin="180" yMin="-326" xMax="555" yMax="1422">
      <contour>
        <pt x="180" y="-326" on="1"/>
        <pt x="180" y="1422" on="1"/>
        <pt x="330" y="1422" on="1"/>
        <pt x="330" y="249" on="1"/>
        <pt x="330" y="203" on="0"/>
        <pt x="434" y="155" on="0"/>
        <pt x="555" y="155" on="1"/>
        <pt x="555" y="0" on="1"/>
        <pt x="400" y="2" on="0"/>
        <pt x="330" y="76" on="1"/>
        <pt x="330" y="-326" on="1"/>
      </contour>
    </TTGlyph>
    <TTGlyph name="glyph00037" xMin="120" yMin="-11" xMax="1457" yMax="690">
      <component glyphName="uni0847" x="0" y="0" flags="0x204"/>
    </TTGlyph>
    <TTGlyph name="glyph00038" xMin="120" yMin="-11" xMax="1611" yMax="690">
      <contour>
        <pt x="1603" y="0" on="1"/>
        <pt x="1512" y="0" on="0"/>
        <pt x="1402" y="42" on="0"/>
        <pt x="1367" y="88" on="1"/>
        <pt x="1337" y="42" on="0"/>
        <pt x="1202" y="2" on="0"/>
        <pt x="1076" y="0" on="1"/>
        <pt x="714" y="-6" on="1"/>
        <pt x="324" y="-11" on="1"/>
        <pt x="228" y="-11" on="0"/>
        <pt x="120" y="91" on="0"/>
        <pt x="120" y="180" on="1"/>
        <pt x="120" y="270" on="0"/>
        <pt x="253" y="432" on="0"/>
        <pt x="556" y="589" on="0"/>
        <pt x="907" y="690" on="0"/>
        <pt x="1026" y="690" on="1"/>
        <pt x="1189" y="690" on="0"/>
        <pt x="1389" y="506" on="0"/>
        <pt x="1450" y="297" on="1"/>
        <pt x="1469" y="232" on="0"/>
        <pt x="1507" y="179" on="0"/>
        <pt x="1566" y="155" on="0"/>
        <pt x="1611" y="155" on="1"/>
        <pt x="1611" y="0" on="1"/>
      </contour>
      <contour>
        <pt x="1004" y="540" on="1"/>
        <pt x="913" y="540" on="0"/>
        <pt x="529" y="414" on="0"/>
        <pt x="272" y="271" on="0"/>
        <pt x="272" y="210" on="1"/>
        <pt x="272" y="145" on="0"/>
        <pt x="358" y="145" on="1"/>
        <pt x="979" y="153" on="1"/>
        <pt x="1101" y="155" on="1"/>
        <pt x="1196" y="155" on="0"/>
        <pt x="1299" y="204" on="0"/>
        <pt x="1299" y="249" on="1"/>
        <pt x="1299" y="288" on="0"/>
        <pt x="1217" y="468" on="0"/>
        <pt x="1085" y="544" on="0"/>
      </contour>
    </TTGlyph>
    <TTGlyph name="glyph00040" xMin="80" yMin="0" xMax="1334" yMax="1482">
      <component glyphName="uni0848" x="0" y="0" flags="0x204"/>
    </TTGlyph>
    <TTGlyph name="glyph00041" xMin="100" yMin="0" xMax="1426" yMax="1482">
      <contour>
        <pt x="100" y="0" on="1"/>
        <pt x="100" y="155" on="1"/>
        <pt x="366" y="155" on="1"/>
        <pt x="777" y="1206" on="1"/>
        <pt x="829" y="1342" on="0"/>
        <pt x="998" y="1482" on="0"/>
        <pt x="1103" y="1482" on="1"/>
        <pt x="1219" y="1482" on="0"/>
        <pt x="1354" y="1335" on="0"/>
        <pt x="1354" y="1207" on="1"/>
        <pt x="1354" y="1141" on="0"/>
        <pt x="1305" y="945" on="0"/>
        <pt x="1244" y="780" on="1"/>
        <pt x="1013" y="155" on="1"/>
        <pt x="1426" y="155" on="1"/>
        <pt x="1426" y="0" on="1"/>
      </contour>
      <contour>
        <pt x="529" y="155" on="1"/>
        <pt x="844" y="155" on="1"/>
        <pt x="1097" y="818" on="1"/>
        <pt x="1158" y="981" on="0"/>
        <pt x="1203" y="1151" on="0"/>
        <pt x="1203" y="1201" on="1"/>
        <pt x="1203" y="1265" on="0"/>
        <pt x="1145" y="1334" on="0"/>
        <pt x="1094" y="1334" on="1"/>
        <pt x="990" y="1334" on="0"/>
        <pt x="919" y="1150" on="1"/>
      </contour>
    </TTGlyph>
    <TTGlyph name="glyph00042" xMin="-81" yMin="0" xMax="1128" yMax="1482">
      <contour>
        <pt x="0" y="0" on="1"/>
        <pt x="-34" y="0" on="0"/>
        <pt x="-81" y="41" on="0"/>
        <pt x="-81" y="78" on="1"/>
        <pt x="-81" y="114" on="0"/>
        <pt x="-34" y="155" on="0"/>
        <pt x="0" y="155" on="1"/>
        <pt x="140" y="155" on="1"/>
        <pt x="552" y="1206" on="1"/>
        <pt x="604" y="1341" on="0"/>
        <pt x="770" y="1482" on="0"/>
        <pt x="877" y="1482" on="1"/>
        <pt x="993" y="1482" on="0"/>
        <pt x="1128" y="1335" on="0"/>
        <pt x="1128" y="1207" on="1"/>
        <pt x="1128" y="1072" on="0"/>
        <pt x="1019" y="780" on="1"/>
        <pt x="788" y="155" on="1"/>
        <pt x="1024" y="155" on="1"/>
        <pt x="1024" y="0" on="1"/>
      </contour>
      <contour>
        <pt x="304" y="155" on="1"/>
        <pt x="619" y="155" on="1"/>
        <pt x="870" y="818" on="1"/>
        <pt x="934" y="990" on="0"/>
        <pt x="977" y="1152" on="0"/>
        <pt x="977" y="1201" on="1"/>
        <pt x="977" y="1264" on="0"/>
        <pt x="922" y="1334" on="0"/>
        <pt x="868" y="1334" on="1"/>
        <pt x="815" y="1334" on="0"/>
        <pt x="731" y="1246" on="0"/>
        <pt x="694" y="1150" on="1"/>
      </contour>
    </TTGlyph>
    <TTGlyph name="glyph00043" xMin="-81" yMin="0" xMax="1200" yMax="1482">
      <contour>
        <pt x="0" y="0" on="1"/>
        <pt x="-34" y="0" on="0"/>
        <pt x="-81" y="41" on="0"/>
        <pt x="-81" y="78" on="1"/>
        <pt x="-81" y="114" on="0"/>
        <pt x="-34" y="155" on="0"/>
        <pt x="0" y="155" on="1"/>
        <pt x="141" y="155" on="1"/>
        <pt x="552" y="1206" on="1"/>
        <pt x="604" y="1341" on="0"/>
        <pt x="770" y="1482" on="0"/>
        <pt x="877" y="1482" on="1"/>
        <pt x="993" y="1482" on="0"/>
        <pt x="1128" y="1335" on="0"/>
        <pt x="1128" y="1207" on="1"/>
        <pt x="1128" y="1072" on="0"/>
        <pt x="1019" y="780" on="1"/>
        <pt x="788" y="155" on="1"/>
        <pt x="1200" y="155" on="1"/>
        <pt x="1200" y="0" on="1"/>
      </contour>
      <contour>
        <pt x="304" y="155" on="1"/>
        <pt x="619" y="155" on="1"/>
        <pt x="870" y="818" on="1"/>
        <pt x="934" y="990" on="0"/>
        <pt x="977" y="1152" on="0"/>
        <pt x="977" y="1201" on="1"/>
        <pt x="977" y="1264" on="0"/>
        <pt x="922" y="1334" on="0"/>
        <pt x="868" y="1334" on="1"/>
        <pt x="815" y="1334" on="0"/>
        <pt x="731" y="1246" on="0"/>
        <pt x="694" y="1150" on="1"/>
      </contour>
    </TTGlyph>
    <TTGlyph name="glyph00045" xMin="120" yMin="0" xMax="806" yMax="695">
      <component glyphName="uni0849" x="0" y="0" flags="0x204"/>
    </TTGlyph>
    <TTGlyph name="glyph00046" xMin="120" yMin="0" xMax="840" yMax="695">
      <contour>
        <pt x="840" y="0" on="1"/>
        <pt x="255" y="0" on="1"/>
        <pt x="120" y="0" on="0"/>
        <pt x="120" y="128" on="1"/>
        <pt x="120" y="236" on="0"/>
        <pt x="372" y="580" on="0"/>
        <pt x="521" y="695" on="1"/>
        <pt x="616" y="604" on="1"/>
        <pt x="525" y="524" on="0"/>
        <pt x="288" y="230" on="0"/>
        <pt x="267" y="155" on="1"/>
        <pt x="840" y="155" on="1"/>
      </contour>
    </TTGlyph>
    <TTGlyph name="glyph00048" xMin="140" yMin="-740" xMax="1254" yMax="694">
      <component glyphName="uni084A" x="0" y="0" flags="0x204"/>
    </TTGlyph>
    <TTGlyph name="glyph00049" xMin="140" yMin="-740" xMax="1360" yMax="694">
      <contour>
        <pt x="1223" y="0" on="1"/>
        <pt x="1163" y="-177" on="0"/>
        <pt x="905" y="-578" on="0"/>
        <pt x="748" y="-740" on="1"/>
        <pt x="641" y="-740" on="1"/>
        <pt x="507" y="-519" on="0"/>
        <pt x="306" y="-80" on="0"/>
        <pt x="178" y="290" on="0"/>
        <pt x="140" y="467" on="1"/>
        <pt x="281" y="505" on="1"/>
        <pt x="357" y="217" on="0"/>
        <pt x="568" y="-305" on="0"/>
        <pt x="715" y="-575" on="1"/>
        <pt x="789" y="-494" on="0"/>
        <pt x="1018" y="-133" on="0"/>
        <pt x="1068" y="0" on="1"/>
        <pt x="816" y="0" on="1"/>
        <pt x="741" y="0" on="0"/>
        <pt x="663" y="74" on="0"/>
        <pt x="663" y="141" on="1"/>
        <pt x="663" y="213" on="0"/>
        <pt x="772" y="419" on="0"/>
        <pt x="956" y="633" on="0"/>
        <pt x="1044" y="694" on="1"/>
        <pt x="1142" y="597" on="1"/>
        <pt x="1017" y="499" on="0"/>
        <pt x="810" y="223" on="0"/>
        <pt x="803" y="155" on="1"/>
        <pt x="1360" y="155" on="1"/>
        <pt x="1360" y="0" on="1"/>
      </contour>
    </TTGlyph>
    <TTGlyph name="glyph00050" xMin="-81" yMin="-780" xMax="1153" yMax="694">
      <contour>
        <pt x="535" y="-780" on="1"/>
        <pt x="469" y="-650" on="0"/>
        <pt x="386" y="-468" on="1"/>
        <pt x="300" y="-280" on="0"/>
        <pt x="177" y="-86" on="0"/>
        <pt x="72" y="0" on="0"/>
        <pt x="0" y="0" on="1"/>
        <pt x="-33" y="0" on="0"/>
        <pt x="-81" y="41" on="0"/>
        <pt x="-81" y="78" on="1"/>
        <pt x="-81" y="114" on="0"/>
        <pt x="-33" y="155" on="0"/>
        <pt x="0" y="155" on="1"/>
        <pt x="61" y="155" on="0"/>
        <pt x="170" y="118" on="0"/>
        <pt x="268" y="43" on="0"/>
        <pt x="356" y="-71" on="0"/>
        <pt x="445" y="-242" on="0"/>
        <pt x="609" y="-609" on="1"/>
        <pt x="701" y="-500" on="0"/>
        <pt x="931" y="-133" on="0"/>
        <pt x="986" y="0" on="1"/>
        <pt x="714" y="0" on="1"/>
        <pt x="638" y="0" on="0"/>
        <pt x="559" y="73" on="0"/>
        <pt x="559" y="141" on="1"/>
        <pt x="559" y="255" on="0"/>
        <pt x="809" y="602" on="0"/>
        <pt x="941" y="694" on="1"/>
        <pt x="1038" y="597" on="1"/>
        <pt x="916" y="501" on="0"/>
        <pt x="707" y="223" on="0"/>
        <pt x="700" y="155" on="1"/>
        <pt x="1049" y="155" on="1"/>
        <pt x="1095" y="155" on="0"/>
        <pt x="1153" y="107" on="0"/>
        <pt x="1153" y="61" on="1"/>
        <pt x="1153" y="9" on="0"/>
        <pt x="1021" y="-271" on="0"/>
        <pt x="798" y="-598" on="0"/>
        <pt x="643" y="-780" on="1"/>
      </contour>
    </TTGlyph>
    <TTGlyph name="glyph00051" xMin="-81" yMin="-780" xMax="1256" yMax="694">
      <contour>
        <pt x="535" y="-780" on="1"/>
        <pt x="464" y="-637" on="0"/>
        <pt x="386" y="-465" on="1"/>
        <pt x="306" y="-286" on="0"/>
        <pt x="178" y="-80" on="0"/>
        <pt x="75" y="0" on="0"/>
        <pt x="0" y="0" on="1"/>
        <pt x="-34" y="0" on="0"/>
        <pt x="-81" y="41" on="0"/>
        <pt x="-81" y="78" on="1"/>
        <pt x="-81" y="114" on="0"/>
        <pt x="-34" y="155" on="0"/>
        <pt x="0" y="155" on="1"/>
        <pt x="64" y="155" on="0"/>
        <pt x="173" y="120" on="0"/>
        <pt x="272" y="45" on="0"/>
        <pt x="359" y="-70" on="0"/>
        <pt x="446" y="-240" on="0"/>
        <pt x="609" y="-608" on="1"/>
        <pt x="697" y="-504" on="0"/>
        <pt x="918" y="-141" on="0"/>
        <pt x="966" y="0" on="1"/>
        <pt x="713" y="0" on="1"/>
        <pt x="638" y="0" on="0"/>
        <pt x="559" y="73" on="0"/>
        <pt x="559" y="141" on="1"/>
        <pt x="559" y="255" on="0"/>
        <pt x="809" y="602" on="0"/>
        <pt x="941" y="694" on="1"/>
        <pt x="1038" y="597" on="1"/>
        <pt x="913" y="499" on="0"/>
        <pt x="706" y="223" on="0"/>
        <pt x="699" y="155" on="1"/>
        <pt x="1256" y="155" on="1"/>
        <pt x="1256" y="0" on="1"/>
        <pt x="1120" y="0" on="1"/>
        <pt x="1072" y="-136" on="0"/>
        <pt x="947" y="-375" on="0"/>
        <pt x="798" y="-594" on="0"/>
        <pt x="643" y="-780" on="1"/>
      </contour>
    </TTGlyph>
    <TTGlyph name="glyph00053" xMin="100" yMin="0" xMax="742" yMax="1422">
      <component glyphName="uni084B" x="0" y="0" flags="0x204"/>
    </TTGlyph>
    <TTGlyph name="glyph00054" xMin="100" yMin="0" xMax="965" yMax="1422">
      <contour>
        <pt x="965" y="0" on="1"/>
        <pt x="100" y="0" on="1"/>
        <pt x="100" y="155" on="1"/>
        <pt x="592" y="155" on="1"/>
        <pt x="592" y="1422" on="1"/>
        <pt x="742" y="1422" on="1"/>
        <pt x="742" y="155" on="1"/>
        <pt x="965" y="155" on="1"/>
      </contour>
    </TTGlyph>
    <TTGlyph name="glyph00055" xMin="-81" yMin="0" xMax="383" yMax="1422">
      <contour>
        <pt x="0" y="0" on="1"/>
        <pt x="-34" y="0" on="0"/>
        <pt x="-81" y="41" on="0"/>
        <pt x="-81" y="78" on="1"/>
        <pt x="-81" y="114" on="0"/>
        <pt x="-34" y="155" on="0"/>
        <pt x="0" y="155" on="1"/>
        <pt x="233" y="155" on="1"/>
        <pt x="233" y="1422" on="1"/>
        <pt x="383" y="1422" on="1"/>
        <pt x="383" y="0" on="1"/>
      </contour>
    </TTGlyph>
    <TTGlyph name="glyph00056" xMin="-81" yMin="0" xMax="607" yMax="1422">
      <contour>
        <pt x="607" y="0" on="1"/>
        <pt x="0" y="0" on="1"/>
        <pt x="-34" y="0" on="0"/>
        <pt x="-81" y="41" on="0"/>
        <pt x="-81" y="78" on="1"/>
        <pt x="-81" y="114" on="0"/>
        <pt x="-34" y="155" on="0"/>
        <pt x="0" y="155" on="1"/>
        <pt x="233" y="155" on="1"/>
        <pt x="233" y="1422" on="1"/>
        <pt x="384" y="1422" on="1"/>
        <pt x="384" y="155" on="1"/>
        <pt x="607" y="155" on="1"/>
      </contour>
    </TTGlyph>
    <TTGlyph name="glyph00058" xMin="100" yMin="-326" xMax="1859" yMax="1019">
      <component glyphName="uni084C" x="0" y="0" flags="0x204"/>
    </TTGlyph>
    <TTGlyph name="glyph00059" xMin="100" yMin="0" xMax="2072" yMax="1019">
      <contour>
        <pt x="1033" y="926" on="1"/>
        <pt x="860" y="781" on="1"/>
        <pt x="830" y="757" on="0"/>
        <pt x="691" y="663" on="0"/>
        <pt x="639" y="636" on="1"/>
        <pt x="1709" y="636" on="1"/>
        <pt x="1709" y="1009" on="1"/>
        <pt x="1859" y="1009" on="1"/>
        <pt x="1859" y="381" on="1"/>
        <pt x="1859" y="295" on="0"/>
        <pt x="1893" y="198" on="0"/>
        <pt x="1956" y="155" on="0"/>
        <pt x="2029" y="155" on="1"/>
        <pt x="2072" y="155" on="1"/>
        <pt x="2072" y="0" on="1"/>
        <pt x="2015" y="0" on="1"/>
        <pt x="1858" y="0" on="0"/>
        <pt x="1709" y="180" on="0"/>
        <pt x="1709" y="366" on="1"/>
        <pt x="1709" y="486" on="1"/>
        <pt x="1292" y="486" on="1"/>
        <pt x="1346" y="417" on="0"/>
        <pt x="1346" y="321" on="1"/>
        <pt x="1346" y="167" on="0"/>
        <pt x="1168" y="0" on="0"/>
        <pt x="1012" y="0" on="1"/>
        <pt x="100" y="0" on="1"/>
        <pt x="100" y="155" on="1"/>
        <pt x="1012" y="155" on="1"/>
        <pt x="1099" y="155" on="0"/>
        <pt x="1195" y="240" on="0"/>
        <pt x="1195" y="321" on="1"/>
        <pt x="1195" y="398" on="0"/>
        <pt x="1103" y="486" on="0"/>
        <pt x="1020" y="486" on="1"/>
        <pt x="402" y="486" on="1"/>
        <pt x="402" y="597" on="1"/>
        <pt x="416" y="604" on="0"/>
        <pt x="456" y="631" on="0"/>
        <pt x="541" y="697" on="0"/>
        <pt x="936" y="1019" on="1"/>
      </contour>
    </TTGlyph>
    <TTGlyph name="glyph00060" xMin="-81" yMin="-326" xMax="1622" yMax="1020">
      <contour>
        <pt x="1622" y="1009" on="1"/>
        <pt x="1622" y="-326" on="1"/>
        <pt x="1472" y="-326" on="1"/>
        <pt x="1472" y="486" on="1"/>
        <pt x="1055" y="486" on="1"/>
        <pt x="1109" y="417" on="0"/>
        <pt x="1109" y="321" on="1"/>
        <pt x="1109" y="167" on="0"/>
        <pt x="931" y="0" on="0"/>
        <pt x="775" y="0" on="1"/>
        <pt x="0" y="0" on="1"/>
        <pt x="-33" y="0" on="0"/>
        <pt x="-81" y="41" on="0"/>
        <pt x="-81" y="78" on="1"/>
        <pt x="-81" y="114" on="0"/>
        <pt x="-33" y="155" on="0"/>
        <pt x="0" y="155" on="1"/>
        <pt x="775" y="155" on="1"/>
        <pt x="863" y="155" on="0"/>
        <pt x="957" y="241" on="0"/>
        <pt x="957" y="321" on="1"/>
        <pt x="957" y="400" on="0"/>
        <pt x="867" y="486" on="0"/>
        <pt x="783" y="486" on="1"/>
        <pt x="165" y="486" on="1"/>
        <pt x="165" y="597" on="1"/>
        <pt x="202" y="617" on="0"/>
        <pt x="320" y="710" on="1"/>
        <pt x="699" y="1020" on="1"/>
        <pt x="795" y="926" on="1"/>
        <pt x="622" y="781" on="1"/>
        <pt x="585" y="750" on="0"/>
        <pt x="441" y="658" on="0"/>
        <pt x="401" y="636" on="1"/>
        <pt x="1472" y="636" on="1"/>
        <pt x="1472" y="1009" on="1"/>
      </contour>
    </TTGlyph>
    <TTGlyph name="glyph00061" xMin="-81" yMin="0" xMax="1834" yMax="1020">
      <contour>
        <pt x="795" y="926" on="1"/>
        <pt x="623" y="781" on="1"/>
        <pt x="593" y="756" on="0"/>
        <pt x="453" y="663" on="0"/>
        <pt x="401" y="636" on="1"/>
        <pt x="1472" y="636" on="1"/>
        <pt x="1472" y="1009" on="1"/>
        <pt x="1622" y="1009" on="1"/>
        <pt x="1622" y="381" on="1"/>
        <pt x="1622" y="295" on="0"/>
        <pt x="1655" y="199" on="0"/>
        <pt x="1718" y="155" on="0"/>
        <pt x="1792" y="155" on="1"/>
        <pt x="1834" y="155" on="1"/>
        <pt x="1834" y="0" on="1"/>
        <pt x="1766" y="0" on="1"/>
        <pt x="1612" y="0" on="0"/>
        <pt x="1472" y="179" on="0"/>
        <pt x="1472" y="366" on="1"/>
        <pt x="1472" y="486" on="1"/>
        <pt x="1055" y="486" on="1"/>
        <pt x="1109" y="417" on="0"/>
        <pt x="1109" y="321" on="1"/>
        <pt x="1109" y="167" on="0"/>
        <pt x="931" y="0" on="0"/>
        <pt x="775" y="0" on="1"/>
        <pt x="0" y="0" on="1"/>
        <pt x="-34" y="0" on="0"/>
        <pt x="-81" y="41" on="0"/>
        <pt x="-81" y="78" on="1"/>
        <pt x="-81" y="114" on="0"/>
        <pt x="-34" y="155" on="0"/>
        <pt x="0" y="155" on="1"/>
        <pt x="775" y="155" on="1"/>
        <pt x="862" y="155" on="0"/>
        <pt x="958" y="240" on="0"/>
        <pt x="958" y="321" on="1"/>
        <pt x="958" y="400" on="0"/>
        <pt x="867" y="486" on="0"/>
        <pt x="783" y="486" on="1"/>
        <pt x="165" y="486" on="1"/>
        <pt x="165" y="597" on="1"/>
        <pt x="190" y="610" on="0"/>
        <pt x="275" y="675" on="0"/>
        <pt x="300" y="694" on="0"/>
        <pt x="699" y="1020" on="1"/>
      </contour>
    </TTGlyph>
    <TTGlyph name="glyph00063" xMin="140" yMin="-740" xMax="1062" yMax="505">
      <component glyphName="uni084D" x="0" y="0" flags="0x204"/>
    </TTGlyph>
    <TTGlyph name="glyph00064" xMin="140" yMin="-740" xMax="1221" yMax="505">
      <contour>
        <pt x="1011" y="79" on="1"/>
        <pt x="956" y="-131" on="0"/>
        <pt x="743" y="-583" on="0"/>
        <pt x="621" y="-740" on="1"/>
        <pt x="515" y="-740" on="1"/>
        <pt x="394" y="-517" on="0"/>
        <pt x="179" y="168" on="0"/>
        <pt x="140" y="479" on="1"/>
        <pt x="283" y="505" on="1"/>
        <pt x="338" y="194" on="0"/>
        <pt x="486" y="-307" on="0"/>
        <pt x="587" y="-554" on="1"/>
        <pt x="655" y="-446" on="0"/>
        <pt x="797" y="-130" on="0"/>
        <pt x="890" y="178" on="0"/>
        <pt x="896" y="282" on="1"/>
        <pt x="896" y="333" on="1"/>
        <pt x="894" y="394" on="1"/>
        <pt x="1031" y="414" on="1"/>
        <pt x="1042" y="365" on="0"/>
        <pt x="1042" y="293" on="1"/>
        <pt x="1042" y="273" on="1"/>
        <pt x="1053" y="213" on="0"/>
        <pt x="1148" y="155" on="0"/>
        <pt x="1221" y="155" on="1"/>
        <pt x="1221" y="0" on="1"/>
        <pt x="1075" y="3" on="0"/>
      </contour>
    </TTGlyph>
    <TTGlyph name="glyph00065" xMin="-81" yMin="-754" xMax="956" yMax="505">
      <contour>
        <pt x="404" y="-754" on="1"/>
        <pt x="264" y="-339" on="1"/>
        <pt x="190" y="-123" on="0"/>
        <pt x="161" y="-79" on="1"/>
        <pt x="133" y="-37" on="0"/>
        <pt x="66" y="0" on="0"/>
        <pt x="0" y="0" on="1"/>
        <pt x="-34" y="0" on="0"/>
        <pt x="-81" y="41" on="0"/>
        <pt x="-81" y="78" on="1"/>
        <pt x="-81" y="114" on="0"/>
        <pt x="-34" y="155" on="0"/>
        <pt x="0" y="155" on="1"/>
        <pt x="133" y="155" on="0"/>
        <pt x="291" y="31" on="0"/>
        <pt x="342" y="-107" on="1"/>
        <pt x="379" y="-205" on="0"/>
        <pt x="484" y="-545" on="1"/>
        <pt x="601" y="-346" on="0"/>
        <pt x="799" y="160" on="0"/>
        <pt x="810" y="322" on="1"/>
        <pt x="810" y="401" on="0"/>
        <pt x="803" y="485" on="1"/>
        <pt x="945" y="505" on="1"/>
        <pt x="956" y="475" on="0"/>
        <pt x="956" y="353" on="1"/>
        <pt x="956" y="144" on="0"/>
        <pt x="699" y="-482" on="0"/>
        <pt x="505" y="-754" on="1"/>
      </contour>
    </TTGlyph>
    <TTGlyph name="glyph00066" xMin="-81" yMin="-780" xMax="1142" yMax="414">
      <contour>
        <pt x="412" y="-780" on="1"/>
        <pt x="264" y="-339" on="1"/>
        <pt x="190" y="-123" on="0"/>
        <pt x="161" y="-79" on="1"/>
        <pt x="133" y="-37" on="0"/>
        <pt x="66" y="0" on="0"/>
        <pt x="0" y="0" on="1"/>
        <pt x="-34" y="0" on="0"/>
        <pt x="-81" y="41" on="0"/>
        <pt x="-81" y="78" on="1"/>
        <pt x="-81" y="114" on="0"/>
        <pt x="-34" y="155" on="0"/>
        <pt x="0" y="155" on="1"/>
        <pt x="133" y="155" on="0"/>
        <pt x="291" y="31" on="0"/>
        <pt x="342" y="-107" on="1"/>
        <pt x="360" y="-156" on="0"/>
        <pt x="394" y="-255" on="0"/>
        <pt x="492" y="-571" on="1"/>
        <pt x="617" y="-358" on="0"/>
        <pt x="807" y="129" on="0"/>
        <pt x="817" y="282" on="1"/>
        <pt x="817" y="322" on="0"/>
        <pt x="811" y="394" on="1"/>
        <pt x="953" y="414" on="1"/>
        <pt x="964" y="384" on="0"/>
        <pt x="964" y="293" on="1"/>
        <pt x="964" y="280" on="1"/>
        <pt x="963" y="268" on="1"/>
        <pt x="975" y="211" on="0"/>
        <pt x="1070" y="155" on="0"/>
        <pt x="1142" y="155" on="1"/>
        <pt x="1142" y="0" on="1"/>
        <pt x="998" y="4" on="0"/>
        <pt x="933" y="77" on="1"/>
        <pt x="882" y="-119" on="0"/>
        <pt x="647" y="-592" on="0"/>
        <pt x="513" y="-780" on="1"/>
      </contour>
    </TTGlyph>
    <TTGlyph name="glyph00068" xMin="100" yMin="0" xMax="1893" yMax="670">
      <component glyphName="uni084E" x="0" y="0" flags="0x204"/>
    </TTGlyph>
    <TTGlyph name="glyph00069" xMin="100" yMin="0" xMax="2052" yMax="670">
      <contour>
        <pt x="691" y="125" on="1"/>
        <pt x="648" y="68" on="0"/>
        <pt x="475" y="0" on="0"/>
        <pt x="351" y="0" on="1"/>
        <pt x="100" y="0" on="1"/>
        <pt x="100" y="155" on="1"/>
        <pt x="369" y="155" on="1"/>
        <pt x="503" y="155" on="0"/>
        <pt x="632" y="261" on="0"/>
        <pt x="637" y="386" on="1"/>
        <pt x="775" y="402" on="1"/>
        <pt x="777" y="379" on="1"/>
        <pt x="777" y="356" on="1"/>
        <pt x="777" y="316" on="0"/>
        <pt x="771" y="277" on="1"/>
        <pt x="790" y="206" on="0"/>
        <pt x="897" y="174" on="1"/>
        <pt x="1021" y="431" on="0"/>
        <pt x="1312" y="670" on="0"/>
        <pt x="1489" y="670" on="1"/>
        <pt x="1611" y="670" on="0"/>
        <pt x="1794" y="563" on="0"/>
        <pt x="1893" y="374" on="0"/>
        <pt x="1893" y="260" on="1"/>
        <pt x="1893" y="198" on="0"/>
        <pt x="1870" y="155" on="1"/>
        <pt x="2052" y="155" on="1"/>
        <pt x="2052" y="0" on="1"/>
        <pt x="1050" y="0" on="1"/>
        <pt x="917" y="0" on="0"/>
        <pt x="750" y="58" on="0"/>
      </contour>
      <contour>
        <pt x="1492" y="519" on="1"/>
        <pt x="1368" y="519" on="0"/>
        <pt x="1131" y="322" on="0"/>
        <pt x="1054" y="155" on="1"/>
        <pt x="1617" y="155" on="1"/>
        <pt x="1743" y="155" on="0"/>
        <pt x="1743" y="253" on="1"/>
        <pt x="1743" y="375" on="0"/>
        <pt x="1605" y="519" on="0"/>
      </contour>
    </TTGlyph>
    <TTGlyph name="glyph00070" xMin="-81" yMin="0" xMax="1462" yMax="670">
      <contour>
        <pt x="260" y="124" on="1"/>
        <pt x="169" y="0" on="0"/>
        <pt x="5" y="0" on="1"/>
        <pt x="0" y="0" on="1"/>
        <pt x="-34" y="0" on="0"/>
        <pt x="-81" y="41" on="0"/>
        <pt x="-81" y="78" on="1"/>
        <pt x="-81" y="114" on="0"/>
        <pt x="-34" y="155" on="0"/>
        <pt x="0" y="155" on="1"/>
        <pt x="10" y="155" on="1"/>
        <pt x="103" y="155" on="0"/>
        <pt x="201" y="276" on="0"/>
        <pt x="201" y="386" on="1"/>
        <pt x="344" y="402" on="1"/>
        <pt x="346" y="379" on="1"/>
        <pt x="346" y="356" on="1"/>
        <pt x="346" y="316" on="0"/>
        <pt x="340" y="277" on="1"/>
        <pt x="359" y="206" on="0"/>
        <pt x="466" y="174" on="1"/>
        <pt x="590" y="431" on="0"/>
        <pt x="881" y="670" on="0"/>
        <pt x="1058" y="670" on="1"/>
        <pt x="1180" y="670" on="0"/>
        <pt x="1363" y="562" on="0"/>
        <pt x="1462" y="369" on="0"/>
        <pt x="1462" y="250" on="1"/>
        <pt x="1462" y="117" on="0"/>
        <pt x="1290" y="0" on="0"/>
        <pt x="1103" y="0" on="1"/>
        <pt x="619" y="0" on="1"/>
        <pt x="485" y="0" on="0"/>
        <pt x="317" y="59" on="0"/>
      </contour>
      <contour>
        <pt x="1061" y="519" on="1"/>
        <pt x="937" y="519" on="0"/>
        <pt x="700" y="322" on="0"/>
        <pt x="623" y="155" on="1"/>
        <pt x="1160" y="155" on="1"/>
        <pt x="1232" y="155" on="0"/>
        <pt x="1312" y="206" on="0"/>
        <pt x="1312" y="253" on="1"/>
        <pt x="1312" y="375" on="0"/>
        <pt x="1174" y="519" on="0"/>
      </contour>
    </TTGlyph>
    <TTGlyph name="glyph00071" xMin="-81" yMin="0" xMax="1621" yMax="670">
      <contour>
        <pt x="260" y="124" on="1"/>
        <pt x="169" y="0" on="0"/>
        <pt x="5" y="0" on="1"/>
        <pt x="0" y="0" on="1"/>
        <pt x="-34" y="0" on="0"/>
        <pt x="-81" y="41" on="0"/>
        <pt x="-81" y="78" on="1"/>
        <pt x="-81" y="114" on="0"/>
        <pt x="-34" y="155" on="0"/>
        <pt x="0" y="155" on="1"/>
        <pt x="10" y="155" on="1"/>
        <pt x="103" y="155" on="0"/>
        <pt x="201" y="276" on="0"/>
        <pt x="201" y="386" on="1"/>
        <pt x="344" y="402" on="1"/>
        <pt x="346" y="379" on="1"/>
        <pt x="346" y="356" on="1"/>
        <pt x="346" y="316" on="0"/>
        <pt x="340" y="277" on="1"/>
        <pt x="359" y="206" on="0"/>
        <pt x="466" y="174" on="1"/>
        <pt x="590" y="431" on="0"/>
        <pt x="881" y="670" on="0"/>
        <pt x="1058" y="670" on="1"/>
        <pt x="1180" y="670" on="0"/>
        <pt x="1363" y="563" on="0"/>
        <pt x="1462" y="374" on="0"/>
        <pt x="1462" y="260" on="1"/>
        <pt x="1462" y="198" on="0"/>
        <pt x="1439" y="155" on="1"/>
        <pt x="1621" y="155" on="1"/>
        <pt x="1621" y="0" on="1"/>
        <pt x="619" y="0" on="1"/>
        <pt x="485" y="0" on="0"/>
        <pt x="317" y="59" on="0"/>
      </contour>
      <contour>
        <pt x="1061" y="519" on="1"/>
        <pt x="937" y="519" on="0"/>
        <pt x="700" y="322" on="0"/>
        <pt x="623" y="155" on="1"/>
        <pt x="1186" y="155" on="1"/>
        <pt x="1312" y="155" on="0"/>
        <pt x="1312" y="253" on="1"/>
        <pt x="1312" y="375" on="0"/>
        <pt x="1174" y="519" on="0"/>
      </contour>
    </TTGlyph>
    <TTGlyph name="glyph00073" xMin="100" yMin="0" xMax="1588" yMax="1020">
      <component glyphName="uni084F" x="0" y="0" flags="0x204"/>
    </TTGlyph>
    <TTGlyph name="glyph00074" xMin="100" yMin="0" xMax="1749" yMax="1020">
      <contour>
        <pt x="1098" y="920" on="1"/>
        <pt x="868" y="754" on="1"/>
        <pt x="760" y="682" on="0"/>
        <pt x="668" y="636" on="1"/>
        <pt x="1254" y="636" on="1"/>
        <pt x="1413" y="636" on="0"/>
        <pt x="1588" y="473" on="0"/>
        <pt x="1588" y="321" on="1"/>
        <pt x="1588" y="228" on="0"/>
        <pt x="1544" y="155" on="1"/>
        <pt x="1749" y="155" on="1"/>
        <pt x="1749" y="0" on="1"/>
        <pt x="100" y="0" on="1"/>
        <pt x="100" y="155" on="1"/>
        <pt x="1254" y="155" on="1"/>
        <pt x="1342" y="155" on="0"/>
        <pt x="1438" y="241" on="0"/>
        <pt x="1438" y="320" on="1"/>
        <pt x="1438" y="398" on="0"/>
        <pt x="1343" y="486" on="0"/>
        <pt x="1254" y="486" on="1"/>
        <pt x="402" y="486" on="1"/>
        <pt x="402" y="597" on="1"/>
        <pt x="471" y="632" on="0"/>
        <pt x="564" y="700" on="1"/>
        <pt x="1005" y="1020" on="1"/>
      </contour>
    </TTGlyph>
    <TTGlyph name="glyph00075" xMin="-81" yMin="0" xMax="1352" yMax="1020">
      <contour>
        <pt x="862" y="920" on="1"/>
        <pt x="632" y="754" on="1"/>
        <pt x="524" y="682" on="0"/>
        <pt x="432" y="636" on="1"/>
        <pt x="1018" y="636" on="1"/>
        <pt x="1177" y="636" on="0"/>
        <pt x="1352" y="473" on="0"/>
        <pt x="1352" y="321" on="1"/>
        <pt x="1352" y="167" on="0"/>
        <pt x="1174" y="0" on="0"/>
        <pt x="1018" y="0" on="1"/>
        <pt x="0" y="0" on="1"/>
        <pt x="-34" y="0" on="0"/>
        <pt x="-81" y="41" on="0"/>
        <pt x="-81" y="78" on="1"/>
        <pt x="-81" y="114" on="0"/>
        <pt x="-34" y="155" on="0"/>
        <pt x="0" y="155" on="1"/>
        <pt x="1018" y="155" on="1"/>
        <pt x="1106" y="155" on="0"/>
        <pt x="1202" y="241" on="0"/>
        <pt x="1202" y="320" on="1"/>
        <pt x="1202" y="398" on="0"/>
        <pt x="1107" y="486" on="0"/>
        <pt x="1018" y="486" on="1"/>
        <pt x="166" y="486" on="1"/>
        <pt x="166" y="597" on="1"/>
        <pt x="235" y="632" on="0"/>
        <pt x="328" y="700" on="1"/>
        <pt x="769" y="1020" on="1"/>
      </contour>
    </TTGlyph>
    <TTGlyph name="glyph00076" xMin="-81" yMin="0" xMax="1513" yMax="1020">
      <contour>
        <pt x="862" y="920" on="1"/>
        <pt x="632" y="754" on="1"/>
        <pt x="524" y="682" on="0"/>
        <pt x="432" y="636" on="1"/>
        <pt x="1018" y="636" on="1"/>
        <pt x="1177" y="636" on="0"/>
        <pt x="1352" y="473" on="0"/>
        <pt x="1352" y="321" on="1"/>
        <pt x="1352" y="228" on="0"/>
        <pt x="1308" y="155" on="1"/>
        <pt x="1513" y="155" on="1"/>
        <pt x="1513" y="0" on="1"/>
        <pt x="0" y="0" on="1"/>
        <pt x="-34" y="0" on="0"/>
        <pt x="-81" y="41" on="0"/>
        <pt x="-81" y="78" on="1"/>
        <pt x="-81" y="114" on="0"/>
        <pt x="-34" y="155" on="0"/>
        <pt x="0" y="155" on="1"/>
        <pt x="1018" y="155" on="1"/>
        <pt x="1106" y="155" on="0"/>
        <pt x="1202" y="241" on="0"/>
        <pt x="1202" y="320" on="1"/>
        <pt x="1202" y="398" on="0"/>
        <pt x="1107" y="486" on="0"/>
        <pt x="1018" y="486" on="1"/>
        <pt x="166" y="486" on="1"/>
        <pt x="166" y="597" on="1"/>
        <pt x="235" y="632" on="0"/>
        <pt x="328" y="700" on="1"/>
        <pt x="769" y="1020" on="1"/>
      </contour>
    </TTGlyph>
    <TTGlyph name="glyph00078" xMin="140" yMin="-780" xMax="1334" yMax="676">
      <component glyphName="uni0850" x="0" y="0" flags="0x204"/>
    </TTGlyph>
    <TTGlyph name="glyph00079" xMin="140" yMin="-780" xMax="1486" yMax="676">
      <contour>
        <pt x="736" y="-606" on="1"/>
        <pt x="858" y="-459" on="0"/>
        <pt x="1055" y="-139" on="0"/>
        <pt x="1111" y="0" on="1"/>
        <pt x="971" y="0" on="1"/>
        <pt x="811" y="0" on="0"/>
        <pt x="643" y="150" on="0"/>
        <pt x="643" y="292" on="1"/>
        <pt x="643" y="387" on="0"/>
        <pt x="741" y="574" on="0"/>
        <pt x="900" y="676" on="0"/>
        <pt x="995" y="676" on="1"/>
        <pt x="1094" y="676" on="0"/>
        <pt x="1247" y="588" on="0"/>
        <pt x="1330" y="436" on="0"/>
        <pt x="1330" y="342" on="1"/>
        <pt x="1330" y="232" on="0"/>
        <pt x="1309" y="155" on="1"/>
        <pt x="1486" y="155" on="1"/>
        <pt x="1486" y="0" on="1"/>
        <pt x="1268" y="0" on="1"/>
        <pt x="1215" y="-137" on="0"/>
        <pt x="1090" y="-365" on="0"/>
        <pt x="948" y="-570" on="0"/>
        <pt x="774" y="-780" on="1"/>
        <pt x="669" y="-780" on="1"/>
        <pt x="533" y="-544" on="0"/>
        <pt x="353" y="-181" on="0"/>
        <pt x="179" y="296" on="0"/>
        <pt x="140" y="465" on="1"/>
        <pt x="280" y="505" on="1"/>
        <pt x="362" y="232" on="0"/>
        <pt x="477" y="-75" on="0"/>
        <pt x="631" y="-409" on="0"/>
      </contour>
      <contour>
        <pt x="785" y="314" on="1"/>
        <pt x="785" y="155" on="0"/>
        <pt x="975" y="155" on="1"/>
        <pt x="1159" y="155" on="1"/>
        <pt x="1183" y="220" on="0"/>
        <pt x="1183" y="322" on="1"/>
        <pt x="1183" y="417" on="0"/>
        <pt x="1076" y="529" on="0"/>
        <pt x="992" y="529" on="1"/>
        <pt x="937" y="529" on="0"/>
        <pt x="843" y="468" on="0"/>
        <pt x="785" y="365" on="0"/>
      </contour>
    </TTGlyph>
    <TTGlyph name="glyph00080" xMin="-81" yMin="-780" xMax="1178" yMax="677">
      <contour>
        <pt x="632" y="315" on="1"/>
        <pt x="632" y="155" on="0"/>
        <pt x="822" y="155" on="1"/>
        <pt x="1007" y="155" on="1"/>
        <pt x="1031" y="220" on="0"/>
        <pt x="1031" y="322" on="1"/>
        <pt x="1031" y="417" on="0"/>
        <pt x="924" y="529" on="0"/>
        <pt x="839" y="529" on="1"/>
        <pt x="783" y="529" on="0"/>
        <pt x="688" y="467" on="0"/>
        <pt x="632" y="367" on="0"/>
      </contour>
      <contour>
        <pt x="534" y="-780" on="1"/>
        <pt x="449" y="-610" on="0"/>
        <pt x="341" y="-376" on="1"/>
        <pt x="296" y="-273" on="0"/>
        <pt x="181" y="-89" on="0"/>
        <pt x="78" y="0" on="0"/>
        <pt x="0" y="0" on="1"/>
        <pt x="-34" y="0" on="0"/>
        <pt x="-81" y="41" on="0"/>
        <pt x="-81" y="78" on="1"/>
        <pt x="-81" y="114" on="0"/>
        <pt x="-34" y="155" on="0"/>
        <pt x="0" y="155" on="1"/>
        <pt x="85" y="155" on="0"/>
        <pt x="221" y="92" on="0"/>
        <pt x="338" y="-35" on="0"/>
        <pt x="446" y="-241" on="0"/>
        <pt x="609" y="-608" on="1"/>
        <pt x="698" y="-503" on="0"/>
        <pt x="901" y="-149" on="0"/>
        <pt x="955" y="0" on="1"/>
        <pt x="820" y="0" on="1"/>
        <pt x="658" y="0" on="0"/>
        <pt x="489" y="151" on="0"/>
        <pt x="489" y="293" on="1"/>
        <pt x="489" y="388" on="0"/>
        <pt x="587" y="575" on="0"/>
        <pt x="747" y="677" on="0"/>
        <pt x="842" y="677" on="1"/>
        <pt x="942" y="677" on="0"/>
        <pt x="1094" y="589" on="0"/>
        <pt x="1178" y="433" on="0"/>
        <pt x="1178" y="342" on="1"/>
        <pt x="1178" y="231" on="0"/>
        <pt x="1115" y="-9" on="0"/>
        <pt x="992" y="-291" on="0"/>
        <pt x="807" y="-582" on="0"/>
        <pt x="638" y="-780" on="1"/>
      </contour>
    </TTGlyph>
    <TTGlyph name="glyph00081" xMin="-81" yMin="-780" xMax="1331" yMax="677">
      <contour>
        <pt x="534" y="-780" on="1"/>
        <pt x="422" y="-556" on="0"/>
        <pt x="342" y="-376" on="1"/>
        <pt x="295" y="-269" on="0"/>
        <pt x="176" y="-81" on="0"/>
        <pt x="73" y="0" on="0"/>
        <pt x="0" y="0" on="1"/>
        <pt x="-34" y="0" on="0"/>
        <pt x="-81" y="41" on="0"/>
        <pt x="-81" y="78" on="1"/>
        <pt x="-81" y="114" on="0"/>
        <pt x="-34" y="155" on="0"/>
        <pt x="0" y="155" on="1"/>
        <pt x="108" y="155" on="0"/>
        <pt x="274" y="52" on="0"/>
        <pt x="413" y="-159" on="0"/>
        <pt x="543" y="-455" on="1"/>
        <pt x="609" y="-607" on="1"/>
        <pt x="695" y="-501" on="0"/>
        <pt x="908" y="-133" on="0"/>
        <pt x="954" y="0" on="1"/>
        <pt x="817" y="0" on="1"/>
        <pt x="655" y="0" on="0"/>
        <pt x="486" y="151" on="0"/>
        <pt x="486" y="293" on="1"/>
        <pt x="486" y="388" on="0"/>
        <pt x="584" y="575" on="0"/>
        <pt x="742" y="677" on="0"/>
        <pt x="839" y="677" on="1"/>
        <pt x="939" y="677" on="0"/>
        <pt x="1091" y="589" on="0"/>
        <pt x="1175" y="433" on="0"/>
        <pt x="1175" y="342" on="1"/>
        <pt x="1175" y="236" on="0"/>
        <pt x="1153" y="155" on="1"/>
        <pt x="1331" y="155" on="1"/>
        <pt x="1331" y="0" on="1"/>
        <pt x="1111" y="0" on="1"/>
        <pt x="952" y="-415" on="0"/>
        <pt x="638" y="-780" on="1"/>
      </contour>
      <contour>
        <pt x="629" y="315" on="1"/>
        <pt x="629" y="155" on="0"/>
        <pt x="819" y="155" on="1"/>
        <pt x="1004" y="155" on="1"/>
        <pt x="1028" y="220" on="0"/>
        <pt x="1028" y="322" on="1"/>
        <pt x="1028" y="415" on="0"/>
        <pt x="920" y="529" on="0"/>
        <pt x="836" y="529" on="1"/>
        <pt x="780" y="529" on="0"/>
        <pt x="685" y="467" on="0"/>
        <pt x="629" y="367" on="0"/>
      </contour>
    </TTGlyph>
    <TTGlyph name="glyph00083" xMin="140" yMin="-740" xMax="1955" yMax="505">
      <component glyphName="uni0851" x="0" y="0" flags="0x204"/>
    </TTGlyph>
    <TTGlyph name="glyph00084" xMin="140" yMin="-740" xMax="1724" yMax="505">
      <contour>
        <pt x="1194" y="0" on="1"/>
        <pt x="1074" y="0" on="0"/>
        <pt x="1012" y="82" on="1"/>
        <pt x="988" y="-19" on="0"/>
        <pt x="855" y="-355" on="0"/>
        <pt x="701" y="-637" on="0"/>
        <pt x="621" y="-740" on="1"/>
        <pt x="515" y="-740" on="1"/>
        <pt x="394" y="-517" on="0"/>
        <pt x="179" y="168" on="0"/>
        <pt x="140" y="479" on="1"/>
        <pt x="283" y="505" on="1"/>
        <pt x="338" y="194" on="0"/>
        <pt x="486" y="-307" on="0"/>
        <pt x="587" y="-554" on="1"/>
        <pt x="655" y="-446" on="0"/>
        <pt x="797" y="-130" on="0"/>
        <pt x="890" y="178" on="0"/>
        <pt x="896" y="282" on="1"/>
        <pt x="896" y="326" on="1"/>
        <pt x="895" y="382" on="1"/>
        <pt x="1032" y="402" on="1"/>
        <pt x="1042" y="362" on="0"/>
        <pt x="1042" y="293" on="1"/>
        <pt x="1042" y="273" on="1"/>
        <pt x="1051" y="220" on="0"/>
        <pt x="1128" y="155" on="0"/>
        <pt x="1185" y="155" on="1"/>
        <pt x="1369" y="155" on="0"/>
        <pt x="1369" y="398" on="1"/>
        <pt x="1508" y="414" on="1"/>
        <pt x="1510" y="385" on="1"/>
        <pt x="1510" y="356" on="1"/>
        <pt x="1510" y="310" on="0"/>
        <pt x="1503" y="275" on="1"/>
        <pt x="1517" y="216" on="0"/>
        <pt x="1633" y="155" on="0"/>
        <pt x="1719" y="155" on="1"/>
        <pt x="1724" y="155" on="1"/>
        <pt x="1724" y="0" on="1"/>
        <pt x="1713" y="0" on="1"/>
        <pt x="1507" y="0" on="0"/>
        <pt x="1432" y="127" on="1"/>
        <pt x="1347" y="0" on="0"/>
      </contour>
    </TTGlyph>
    <TTGlyph name="glyph00085" xMin="-81" yMin="-780" xMax="1877" yMax="468">
      <contour>
        <pt x="412" y="-780" on="1"/>
        <pt x="370" y="-651" on="1"/>
        <pt x="203" y="-141" on="0"/>
        <pt x="162" y="-79" on="1"/>
        <pt x="134" y="-37" on="0"/>
        <pt x="68" y="0" on="0"/>
        <pt x="0" y="0" on="1"/>
        <pt x="-33" y="0" on="0"/>
        <pt x="-81" y="41" on="0"/>
        <pt x="-81" y="78" on="1"/>
        <pt x="-81" y="114" on="0"/>
        <pt x="-33" y="155" on="0"/>
        <pt x="0" y="155" on="1"/>
        <pt x="132" y="155" on="0"/>
        <pt x="288" y="34" on="0"/>
        <pt x="342" y="-107" on="1"/>
        <pt x="376" y="-198" on="0"/>
        <pt x="443" y="-409" on="1"/>
        <pt x="493" y="-562" on="1"/>
        <pt x="613" y="-358" on="0"/>
        <pt x="809" y="138" on="0"/>
        <pt x="817" y="293" on="1"/>
        <pt x="818" y="382" on="1"/>
        <pt x="954" y="402" on="1"/>
        <pt x="964" y="365" on="0"/>
        <pt x="964" y="293" on="1"/>
        <pt x="964" y="274" on="1"/>
        <pt x="973" y="219" on="0"/>
        <pt x="1051" y="155" on="0"/>
        <pt x="1107" y="155" on="1"/>
        <pt x="1291" y="155" on="0"/>
        <pt x="1291" y="398" on="1"/>
        <pt x="1430" y="414" on="1"/>
        <pt x="1432" y="385" on="1"/>
        <pt x="1432" y="356" on="1"/>
        <pt x="1432" y="304" on="0"/>
        <pt x="1422" y="258" on="1"/>
        <pt x="1430" y="214" on="0"/>
        <pt x="1506" y="155" on="0"/>
        <pt x="1556" y="155" on="1"/>
        <pt x="1642" y="155" on="0"/>
        <pt x="1733" y="255" on="0"/>
        <pt x="1733" y="356" on="1"/>
        <pt x="1728" y="438" on="1"/>
        <pt x="1863" y="468" on="1"/>
        <pt x="1877" y="416" on="0"/>
        <pt x="1877" y="349" on="1"/>
        <pt x="1877" y="193" on="0"/>
        <pt x="1710" y="0" on="0"/>
        <pt x="1568" y="0" on="1"/>
        <pt x="1416" y="0" on="0"/>
        <pt x="1350" y="122" on="1"/>
        <pt x="1266" y="0" on="0"/>
        <pt x="1116" y="0" on="1"/>
        <pt x="993" y="0" on="0"/>
        <pt x="931" y="87" on="1"/>
        <pt x="871" y="-107" on="0"/>
        <pt x="742" y="-401" on="0"/>
        <pt x="596" y="-663" on="0"/>
        <pt x="514" y="-780" on="1"/>
      </contour>
    </TTGlyph>
    <TTGlyph name="glyph00086" xMin="-81" yMin="-780" xMax="1646" yMax="414">
      <contour>
        <pt x="1635" y="0" on="1"/>
        <pt x="1429" y="0" on="0"/>
        <pt x="1354" y="127" on="1"/>
        <pt x="1269" y="0" on="0"/>
        <pt x="1116" y="0" on="1"/>
        <pt x="993" y="0" on="0"/>
        <pt x="931" y="87" on="1"/>
        <pt x="871" y="-107" on="0"/>
        <pt x="742" y="-401" on="0"/>
        <pt x="596" y="-663" on="0"/>
        <pt x="514" y="-780" on="1"/>
        <pt x="412" y="-780" on="1"/>
        <pt x="370" y="-651" on="1"/>
        <pt x="203" y="-141" on="0"/>
        <pt x="162" y="-79" on="1"/>
        <pt x="134" y="-37" on="0"/>
        <pt x="68" y="0" on="0"/>
        <pt x="0" y="0" on="1"/>
        <pt x="-33" y="0" on="0"/>
        <pt x="-81" y="41" on="0"/>
        <pt x="-81" y="78" on="1"/>
        <pt x="-81" y="114" on="0"/>
        <pt x="-33" y="155" on="0"/>
        <pt x="0" y="155" on="1"/>
        <pt x="132" y="155" on="0"/>
        <pt x="288" y="34" on="0"/>
        <pt x="342" y="-107" on="1"/>
        <pt x="376" y="-198" on="0"/>
        <pt x="443" y="-409" on="1"/>
        <pt x="493" y="-562" on="1"/>
        <pt x="613" y="-358" on="0"/>
        <pt x="809" y="138" on="0"/>
        <pt x="817" y="293" on="1"/>
        <pt x="818" y="382" on="1"/>
        <pt x="954" y="402" on="1"/>
        <pt x="964" y="365" on="0"/>
        <pt x="964" y="293" on="1"/>
        <pt x="964" y="274" on="1"/>
        <pt x="973" y="219" on="0"/>
        <pt x="1051" y="155" on="0"/>
        <pt x="1107" y="155" on="1"/>
        <pt x="1291" y="155" on="0"/>
        <pt x="1291" y="398" on="1"/>
        <pt x="1430" y="414" on="1"/>
        <pt x="1432" y="385" on="1"/>
        <pt x="1432" y="356" on="1"/>
        <pt x="1432" y="310" on="0"/>
        <pt x="1425" y="275" on="1"/>
        <pt x="1439" y="216" on="0"/>
        <pt x="1555" y="155" on="0"/>
        <pt x="1641" y="155" on="1"/>
        <pt x="1646" y="155" on="1"/>
        <pt x="1646" y="0" on="1"/>
      </contour>
    </TTGlyph>
    <TTGlyph name="glyph00088" xMin="100" yMin="0" xMax="1595" yMax="1019">
      <component glyphName="uni0852" x="0" y="0" flags="0x204"/>
    </TTGlyph>
    <TTGlyph name="glyph00089" xMin="100" yMin="0" xMax="1808" yMax="1019">
      <contour>
        <pt x="100" y="155" on="1"/>
        <pt x="709" y="155" on="1"/>
        <pt x="803" y="155" on="0"/>
        <pt x="903" y="241" on="0"/>
        <pt x="903" y="321" on="1"/>
        <pt x="903" y="402" on="0"/>
        <pt x="801" y="486" on="0"/>
        <pt x="709" y="486" on="1"/>
        <pt x="409" y="486" on="1"/>
        <pt x="409" y="598" on="1"/>
        <pt x="430" y="614" on="0"/>
        <pt x="498" y="682" on="0"/>
        <pt x="797" y="1019" on="1"/>
        <pt x="910" y="944" on="1"/>
        <pt x="750" y="762" on="1"/>
        <pt x="687" y="692" on="0"/>
        <pt x="617" y="636" on="1"/>
        <pt x="1446" y="636" on="1"/>
        <pt x="1446" y="998" on="1"/>
        <pt x="1596" y="998" on="1"/>
        <pt x="1596" y="155" on="1"/>
        <pt x="1808" y="155" on="1"/>
        <pt x="1808" y="0" on="1"/>
        <pt x="100" y="0" on="1"/>
      </contour>
      <contour>
        <pt x="1053" y="321" on="1"/>
        <pt x="1053" y="204" on="0"/>
        <pt x="956" y="155" on="1"/>
        <pt x="1446" y="155" on="1"/>
        <pt x="1446" y="486" on="1"/>
        <pt x="966" y="486" on="1"/>
        <pt x="1053" y="435" on="0"/>
      </contour>
    </TTGlyph>
    <TTGlyph name="glyph00090" xMin="-81" yMin="0" xMax="1352" yMax="1019">
      <contour>
        <pt x="0" y="0" on="1"/>
        <pt x="-33" y="0" on="0"/>
        <pt x="-81" y="41" on="0"/>
        <pt x="-81" y="78" on="1"/>
        <pt x="-81" y="114" on="0"/>
        <pt x="-33" y="155" on="0"/>
        <pt x="0" y="155" on="1"/>
        <pt x="466" y="155" on="1"/>
        <pt x="560" y="155" on="0"/>
        <pt x="660" y="241" on="0"/>
        <pt x="660" y="321" on="1"/>
        <pt x="660" y="402" on="0"/>
        <pt x="558" y="486" on="0"/>
        <pt x="466" y="486" on="1"/>
        <pt x="166" y="486" on="1"/>
        <pt x="166" y="598" on="1"/>
        <pt x="201" y="625" on="0"/>
        <pt x="267" y="698" on="1"/>
        <pt x="553" y="1019" on="1"/>
        <pt x="666" y="944" on="1"/>
        <pt x="507" y="762" on="1"/>
        <pt x="495" y="747" on="0"/>
        <pt x="408" y="663" on="0"/>
        <pt x="374" y="636" on="1"/>
        <pt x="1202" y="636" on="1"/>
        <pt x="1202" y="998" on="1"/>
        <pt x="1352" y="998" on="1"/>
        <pt x="1352" y="0" on="1"/>
      </contour>
      <contour>
        <pt x="810" y="321" on="1"/>
        <pt x="810" y="206" on="0"/>
        <pt x="713" y="155" on="1"/>
        <pt x="1202" y="155" on="1"/>
        <pt x="1202" y="486" on="1"/>
        <pt x="723" y="486" on="1"/>
        <pt x="810" y="435" on="0"/>
      </contour>
    </TTGlyph>
    <TTGlyph name="glyph00091" xMin="-81" yMin="0" xMax="1564" yMax="1019">
      <contour>
        <pt x="0" y="0" on="1"/>
        <pt x="-34" y="0" on="0"/>
        <pt x="-81" y="41" on="0"/>
        <pt x="-81" y="78" on="1"/>
        <pt x="-81" y="114" on="0"/>
        <pt x="-34" y="155" on="0"/>
        <pt x="0" y="155" on="1"/>
        <pt x="466" y="155" on="1"/>
        <pt x="560" y="155" on="0"/>
        <pt x="660" y="241" on="0"/>
        <pt x="660" y="321" on="1"/>
        <pt x="660" y="402" on="0"/>
        <pt x="558" y="486" on="0"/>
        <pt x="466" y="486" on="1"/>
        <pt x="166" y="486" on="1"/>
        <pt x="166" y="598" on="1"/>
        <pt x="201" y="625" on="0"/>
        <pt x="267" y="698" on="1"/>
        <pt x="554" y="1019" on="1"/>
        <pt x="666" y="944" on="1"/>
        <pt x="507" y="762" on="1"/>
        <pt x="444" y="692" on="0"/>
        <pt x="374" y="636" on="1"/>
        <pt x="1202" y="636" on="1"/>
        <pt x="1202" y="998" on="1"/>
        <pt x="1352" y="998" on="1"/>
        <pt x="1352" y="155" on="1"/>
        <pt x="1564" y="155" on="1"/>
        <pt x="1564" y="0" on="1"/>
      </contour>
      <contour>
        <pt x="810" y="321" on="1"/>
        <pt x="810" y="206" on="0"/>
        <pt x="713" y="155" on="1"/>
        <pt x="1202" y="155" on="1"/>
        <pt x="1202" y="486" on="1"/>
        <pt x="723" y="486" on="1"/>
        <pt x="810" y="435" on="0"/>
      </contour>
    </TTGlyph>
    <TTGlyph name="glyph00093" xMin="100" yMin="0" xMax="1531" yMax="1019">
      <component glyphName="uni0853" x="0" y="0" flags="0x204"/>
    </TTGlyph>
    <TTGlyph name="glyph00094" xMin="100" yMin="0" xMax="1743" yMax="1019">
      <contour>
        <pt x="895" y="943" on="1"/>
        <pt x="750" y="777" on="1"/>
        <pt x="730" y="753" on="0"/>
        <pt x="634" y="665" on="0"/>
        <pt x="597" y="636" on="1"/>
        <pt x="1381" y="636" on="1"/>
        <pt x="1381" y="998" on="1"/>
        <pt x="1531" y="998" on="1"/>
        <pt x="1531" y="155" on="1"/>
        <pt x="1743" y="155" on="1"/>
        <pt x="1743" y="0" on="1"/>
        <pt x="100" y="0" on="1"/>
        <pt x="100" y="155" on="1"/>
        <pt x="1381" y="155" on="1"/>
        <pt x="1381" y="486" on="1"/>
        <pt x="409" y="486" on="1"/>
        <pt x="409" y="613" on="1"/>
        <pt x="459" y="654" on="0"/>
        <pt x="546" y="752" on="1"/>
        <pt x="782" y="1019" on="1"/>
      </contour>
    </TTGlyph>
    <TTGlyph name="glyph00095" xMin="-81" yMin="0" xMax="1288" yMax="1019">
      <contour>
        <pt x="0" y="0" on="1"/>
        <pt x="-34" y="0" on="0"/>
        <pt x="-81" y="41" on="0"/>
        <pt x="-81" y="78" on="1"/>
        <pt x="-81" y="114" on="0"/>
        <pt x="-34" y="155" on="0"/>
        <pt x="0" y="155" on="1"/>
        <pt x="1138" y="155" on="1"/>
        <pt x="1138" y="486" on="1"/>
        <pt x="166" y="486" on="1"/>
        <pt x="166" y="613" on="1"/>
        <pt x="186" y="628" on="0"/>
        <pt x="243" y="685" on="0"/>
        <pt x="539" y="1019" on="1"/>
        <pt x="650" y="943" on="1"/>
        <pt x="507" y="777" on="1"/>
        <pt x="494" y="762" on="0"/>
        <pt x="407" y="676" on="0"/>
        <pt x="355" y="636" on="1"/>
        <pt x="1138" y="636" on="1"/>
        <pt x="1138" y="998" on="1"/>
        <pt x="1288" y="998" on="1"/>
        <pt x="1288" y="0" on="1"/>
      </contour>
    </TTGlyph>
    <TTGlyph name="glyph00096" xMin="-81" yMin="0" xMax="1500" yMax="1019">
      <contour>
        <pt x="649" y="943" on="1"/>
        <pt x="506" y="777" on="1"/>
        <pt x="493" y="761" on="0"/>
        <pt x="399" y="669" on="0"/>
        <pt x="355" y="636" on="1"/>
        <pt x="1138" y="636" on="1"/>
        <pt x="1138" y="998" on="1"/>
        <pt x="1288" y="998" on="1"/>
        <pt x="1288" y="155" on="1"/>
        <pt x="1500" y="155" on="1"/>
        <pt x="1500" y="0" on="1"/>
        <pt x="0" y="0" on="1"/>
        <pt x="-34" y="0" on="0"/>
        <pt x="-81" y="41" on="0"/>
        <pt x="-81" y="78" on="1"/>
        <pt x="-81" y="114" on="0"/>
        <pt x="-34" y="155" on="0"/>
        <pt x="0" y="155" on="1"/>
        <pt x="1138" y="155" on="1"/>
        <pt x="1138" y="486" on="1"/>
        <pt x="165" y="486" on="1"/>
        <pt x="165" y="613" on="1"/>
        <pt x="182" y="626" on="0"/>
        <pt x="248" y="692" on="0"/>
        <pt x="539" y="1019" on="1"/>
      </contour>
    </TTGlyph>
    <TTGlyph name="glyph00098" xMin="140" yMin="-492" xMax="1730" yMax="690">
      <component glyphName="uni0854" x="0" y="0" flags="0x204"/>
    </TTGlyph>
    <TTGlyph name="glyph00099" xMin="140" yMin="-492" xMax="1888" yMax="690">
      <contour>
        <pt x="1114" y="0" on="1"/>
        <pt x="986" y="-492" on="1"/>
        <pt x="835" y="-492" on="1"/>
        <pt x="804" y="-356" on="0"/>
        <pt x="786" y="-255" on="1"/>
        <pt x="736" y="0" on="1"/>
        <pt x="513" y="0" on="1"/>
        <pt x="337" y="0" on="0"/>
        <pt x="140" y="169" on="0"/>
        <pt x="140" y="316" on="1"/>
        <pt x="140" y="410" on="0"/>
        <pt x="226" y="586" on="0"/>
        <pt x="378" y="690" on="0"/>
        <pt x="471" y="690" on="1"/>
        <pt x="549" y="690" on="0"/>
        <pt x="660" y="646" on="0"/>
        <pt x="750" y="545" on="0"/>
        <pt x="812" y="377" on="0"/>
        <pt x="895" y="-117" on="0"/>
        <pt x="906" y="-309" on="1"/>
        <pt x="925" y="-309" on="1"/>
        <pt x="946" y="-159" on="0"/>
        <pt x="1013" y="187" on="0"/>
        <pt x="1085" y="449" on="0"/>
        <pt x="1176" y="602" on="0"/>
        <pt x="1310" y="690" on="0"/>
        <pt x="1412" y="690" on="1"/>
        <pt x="1506" y="690" on="0"/>
        <pt x="1650" y="600" on="0"/>
        <pt x="1730" y="439" on="0"/>
        <pt x="1730" y="344" on="1"/>
        <pt x="1730" y="229" on="0"/>
        <pt x="1666" y="155" on="1"/>
        <pt x="1888" y="155" on="1"/>
        <pt x="1888" y="0" on="1"/>
      </contour>
      <contour>
        <pt x="287" y="329" on="1"/>
        <pt x="287" y="243" on="0"/>
        <pt x="405" y="155" on="0"/>
        <pt x="517" y="155" on="1"/>
        <pt x="701" y="155" on="1"/>
        <pt x="687" y="229" on="0"/>
        <pt x="659" y="368" on="0"/>
        <pt x="611" y="475" on="0"/>
        <pt x="536" y="540" on="0"/>
        <pt x="477" y="540" on="1"/>
        <pt x="421" y="540" on="0"/>
        <pt x="335" y="481" on="0"/>
        <pt x="287" y="383" on="0"/>
      </contour>
      <contour>
        <pt x="1415" y="540" on="1"/>
        <pt x="1354" y="540" on="0"/>
        <pt x="1270" y="475" on="0"/>
        <pt x="1205" y="344" on="0"/>
        <pt x="1153" y="155" on="1"/>
        <pt x="1345" y="155" on="1"/>
        <pt x="1457" y="155" on="0"/>
        <pt x="1577" y="251" on="0"/>
        <pt x="1577" y="340" on="1"/>
        <pt x="1577" y="433" on="0"/>
        <pt x="1489" y="540" on="0"/>
      </contour>
    </TTGlyph>
    <TTGlyph name="glyph00101" xMin="100" yMin="-326" xMax="1144" yMax="1009">
      <component glyphName="uni0855" x="0" y="0" flags="0x204"/>
    </TTGlyph>
    <TTGlyph name="glyph00102" xMin="100" yMin="0" xMax="1358" yMax="1009">
      <contour>
        <pt x="100" y="0" on="1"/>
        <pt x="100" y="155" on="1"/>
        <pt x="360" y="155" on="1"/>
        <pt x="456" y="155" on="0"/>
        <pt x="534" y="216" on="0"/>
        <pt x="534" y="282" on="1"/>
        <pt x="534" y="396" on="0"/>
        <pt x="417" y="600" on="1"/>
        <pt x="541" y="690" on="1"/>
        <pt x="572" y="640" on="0"/>
        <pt x="600" y="587" on="1"/>
        <pt x="656" y="583" on="1"/>
        <pt x="767" y="583" on="0"/>
        <pt x="948" y="644" on="0"/>
        <pt x="995" y="697" on="1"/>
        <pt x="995" y="1009" on="1"/>
        <pt x="1145" y="1009" on="1"/>
        <pt x="1145" y="381" on="1"/>
        <pt x="1145" y="295" on="0"/>
        <pt x="1179" y="199" on="0"/>
        <pt x="1243" y="155" on="0"/>
        <pt x="1317" y="155" on="1"/>
        <pt x="1358" y="155" on="1"/>
        <pt x="1358" y="0" on="1"/>
        <pt x="1290" y="0" on="1"/>
        <pt x="1137" y="0" on="0"/>
        <pt x="995" y="178" on="0"/>
        <pt x="995" y="366" on="1"/>
        <pt x="995" y="529" on="1"/>
        <pt x="930" y="481" on="0"/>
        <pt x="782" y="436" on="0"/>
        <pt x="686" y="436" on="1"/>
        <pt x="673" y="436" on="1"/>
        <pt x="658" y="437" on="1"/>
        <pt x="684" y="340" on="0"/>
        <pt x="684" y="271" on="1"/>
        <pt x="684" y="137" on="0"/>
        <pt x="516" y="0" on="0"/>
        <pt x="355" y="0" on="1"/>
      </contour>
    </TTGlyph>
    <TTGlyph name="glyph00103" xMin="-81" yMin="-326" xMax="893" yMax="1009">
      <contour>
        <pt x="893" y="1009" on="1"/>
        <pt x="893" y="-326" on="1"/>
        <pt x="743" y="-326" on="1"/>
        <pt x="743" y="529" on="1"/>
        <pt x="678" y="481" on="0"/>
        <pt x="530" y="436" on="0"/>
        <pt x="434" y="436" on="1"/>
        <pt x="421" y="436" on="1"/>
        <pt x="406" y="437" on="1"/>
        <pt x="432" y="340" on="0"/>
        <pt x="432" y="271" on="1"/>
        <pt x="432" y="137" on="0"/>
        <pt x="264" y="0" on="0"/>
        <pt x="103" y="0" on="1"/>
        <pt x="0" y="0" on="1"/>
        <pt x="-34" y="0" on="0"/>
        <pt x="-81" y="41" on="0"/>
        <pt x="-81" y="78" on="1"/>
        <pt x="-81" y="114" on="0"/>
        <pt x="-34" y="155" on="0"/>
        <pt x="0" y="155" on="1"/>
        <pt x="108" y="155" on="1"/>
        <pt x="204" y="155" on="0"/>
        <pt x="282" y="216" on="0"/>
        <pt x="282" y="282" on="1"/>
        <pt x="282" y="396" on="0"/>
        <pt x="165" y="600" on="1"/>
        <pt x="289" y="690" on="1"/>
        <pt x="320" y="640" on="0"/>
        <pt x="348" y="587" on="1"/>
        <pt x="404" y="583" on="1"/>
        <pt x="515" y="583" on="0"/>
        <pt x="696" y="644" on="0"/>
        <pt x="743" y="697" on="1"/>
        <pt x="743" y="1009" on="1"/>
      </contour>
    </TTGlyph>
    <TTGlyph name="glyph00104" xMin="-81" yMin="0" xMax="1106" yMax="1009">
      <contour>
        <pt x="0" y="0" on="1"/>
        <pt x="-34" y="0" on="0"/>
        <pt x="-81" y="41" on="0"/>
        <pt x="-81" y="78" on="1"/>
        <pt x="-81" y="114" on="0"/>
        <pt x="-34" y="155" on="0"/>
        <pt x="0" y="155" on="1"/>
        <pt x="108" y="155" on="1"/>
        <pt x="204" y="155" on="0"/>
        <pt x="282" y="216" on="0"/>
        <pt x="282" y="282" on="1"/>
        <pt x="282" y="396" on="0"/>
        <pt x="165" y="600" on="1"/>
        <pt x="289" y="690" on="1"/>
        <pt x="320" y="640" on="0"/>
        <pt x="348" y="587" on="1"/>
        <pt x="404" y="583" on="1"/>
        <pt x="515" y="583" on="0"/>
        <pt x="696" y="644" on="0"/>
        <pt x="743" y="697" on="1"/>
        <pt x="743" y="1009" on="1"/>
        <pt x="893" y="1009" on="1"/>
        <pt x="893" y="381" on="1"/>
        <pt x="893" y="295" on="0"/>
        <pt x="927" y="199" on="0"/>
        <pt x="991" y="155" on="0"/>
        <pt x="1065" y="155" on="1"/>
        <pt x="1106" y="155" on="1"/>
        <pt x="1106" y="0" on="1"/>
        <pt x="1038" y="0" on="1"/>
        <pt x="885" y="0" on="0"/>
        <pt x="743" y="178" on="0"/>
        <pt x="743" y="366" on="1"/>
        <pt x="743" y="529" on="1"/>
        <pt x="678" y="481" on="0"/>
        <pt x="530" y="436" on="0"/>
        <pt x="434" y="436" on="1"/>
        <pt x="421" y="436" on="1"/>
        <pt x="406" y="437" on="1"/>
        <pt x="432" y="340" on="0"/>
        <pt x="432" y="271" on="1"/>
        <pt x="432" y="137" on="0"/>
        <pt x="264" y="0" on="0"/>
        <pt x="103" y="0" on="1"/>
      </contour>
    </TTGlyph>
    <TTGlyph name="glyph00106" xMin="140" yMin="0" xMax="1463" yMax="695">
      <component glyphName="uni0856" x="0" y="0" flags="0x204"/>
    </TTGlyph>
    <TTGlyph name="glyph00108" xMin="133" yMin="-780" xMax="2205" yMax="695">
      <component glyphName="uni0857" x="0" y="0" flags="0x204"/>
    </TTGlyph>
    <TTGlyph name="glyph00110" xMin="116" yMin="-826" xMax="839" yMax="739">
      <component glyphName="uni0858" x="0" y="0" flags="0x204"/>
    </TTGlyph>
    <TTGlyph name="glyph00115" xMin="-81" yMin="-11" xMax="1616" yMax="690">
      <contour>
        <pt x="1608" y="0" on="1"/>
        <pt x="1517" y="0" on="0"/>
        <pt x="1407" y="42" on="0"/>
        <pt x="1372" y="88" on="1"/>
        <pt x="1342" y="42" on="0"/>
        <pt x="1207" y="2" on="0"/>
        <pt x="1081" y="0" on="1"/>
        <pt x="719" y="-6" on="1"/>
        <pt x="333" y="-11" on="1"/>
        <pt x="209" y="-11" on="0"/>
        <pt x="157" y="64" on="1"/>
        <pt x="100" y="0" on="0"/>
        <pt x="0" y="0" on="1"/>
        <pt x="-34" y="0" on="0"/>
        <pt x="-81" y="41" on="0"/>
        <pt x="-81" y="78" on="1"/>
        <pt x="-81" y="114" on="0"/>
        <pt x="-34" y="155" on="0"/>
        <pt x="0" y="155" on="1"/>
        <pt x="95" y="155" on="0"/>
        <pt x="133" y="241" on="1"/>
        <pt x="165" y="359" on="0"/>
        <pt x="465" y="553" on="0"/>
        <pt x="892" y="690" on="0"/>
        <pt x="1031" y="690" on="1"/>
        <pt x="1195" y="690" on="0"/>
        <pt x="1395" y="504" on="0"/>
        <pt x="1456" y="295" on="1"/>
        <pt x="1482" y="208" on="0"/>
        <pt x="1550" y="155" on="0"/>
        <pt x="1616" y="155" on="1"/>
        <pt x="1616" y="0" on="1"/>
      </contour>
      <contour>
        <pt x="1009" y="540" on="1"/>
        <pt x="918" y="540" on="0"/>
        <pt x="534" y="414" on="0"/>
        <pt x="277" y="271" on="0"/>
        <pt x="277" y="210" on="1"/>
        <pt x="277" y="145" on="0"/>
        <pt x="363" y="145" on="1"/>
        <pt x="984" y="153" on="1"/>
        <pt x="1106" y="155" on="1"/>
        <pt x="1201" y="155" on="0"/>
        <pt x="1304" y="204" on="0"/>
        <pt x="1304" y="249" on="1"/>
        <pt x="1304" y="288" on="0"/>
        <pt x="1222" y="468" on="0"/>
        <pt x="1090" y="544" on="0"/>
      </contour>
    </TTGlyph>
    <TTGlyph name="glyph00116" xMin="100" yMin="0" xMax="1354" yMax="1482">
      <contour>
        <pt x="1250" y="0" on="1"/>
        <pt x="100" y="0" on="1"/>
        <pt x="100" y="155" on="1"/>
        <pt x="366" y="155" on="1"/>
        <pt x="777" y="1206" on="1"/>
        <pt x="829" y="1342" on="0"/>
        <pt x="998" y="1482" on="0"/>
        <pt x="1103" y="1482" on="1"/>
        <pt x="1219" y="1482" on="0"/>
        <pt x="1354" y="1335" on="0"/>
        <pt x="1354" y="1207" on="1"/>
        <pt x="1354" y="1141" on="0"/>
        <pt x="1305" y="945" on="0"/>
        <pt x="1244" y="780" on="1"/>
        <pt x="1013" y="155" on="1"/>
        <pt x="1250" y="155" on="1"/>
      </contour>
      <contour>
        <pt x="529" y="155" on="1"/>
        <pt x="844" y="155" on="1"/>
        <pt x="1097" y="818" on="1"/>
        <pt x="1158" y="981" on="0"/>
        <pt x="1203" y="1151" on="0"/>
        <pt x="1203" y="1201" on="1"/>
        <pt x="1203" y="1265" on="0"/>
        <pt x="1145" y="1334" on="0"/>
        <pt x="1094" y="1334" on="1"/>
        <pt x="990" y="1334" on="0"/>
        <pt x="919" y="1150" on="1"/>
      </contour>
    </TTGlyph>
    <TTGlyph name="glyph00117" xMin="-81" yMin="0" xMax="1128" yMax="1482">
      <contour>
        <pt x="0" y="0" on="1"/>
        <pt x="-34" y="0" on="0"/>
        <pt x="-81" y="41" on="0"/>
        <pt x="-81" y="78" on="1"/>
        <pt x="-81" y="114" on="0"/>
        <pt x="-34" y="155" on="0"/>
        <pt x="0" y="155" on="1"/>
        <pt x="140" y="155" on="1"/>
        <pt x="552" y="1206" on="1"/>
        <pt x="604" y="1341" on="0"/>
        <pt x="770" y="1482" on="0"/>
        <pt x="877" y="1482" on="1"/>
        <pt x="993" y="1482" on="0"/>
        <pt x="1128" y="1335" on="0"/>
        <pt x="1128" y="1207" on="1"/>
        <pt x="1128" y="1072" on="0"/>
        <pt x="1019" y="780" on="1"/>
        <pt x="788" y="155" on="1"/>
        <pt x="1024" y="155" on="1"/>
        <pt x="1024" y="0" on="1"/>
      </contour>
      <contour>
        <pt x="304" y="155" on="1"/>
        <pt x="619" y="155" on="1"/>
        <pt x="870" y="818" on="1"/>
        <pt x="934" y="990" on="0"/>
        <pt x="977" y="1152" on="0"/>
        <pt x="977" y="1201" on="1"/>
        <pt x="977" y="1264" on="0"/>
        <pt x="922" y="1334" on="0"/>
        <pt x="868" y="1334" on="1"/>
        <pt x="815" y="1334" on="0"/>
        <pt x="731" y="1246" on="0"/>
        <pt x="694" y="1150" on="1"/>
      </contour>
    </TTGlyph>
    <TTGlyph name="glyph00118" xMin="-81" yMin="0" xMax="1320" yMax="1482">
      <contour>
        <pt x="0" y="0" on="1"/>
        <pt x="-34" y="0" on="0"/>
        <pt x="-81" y="41" on="0"/>
        <pt x="-81" y="78" on="1"/>
        <pt x="-81" y="114" on="0"/>
        <pt x="-34" y="155" on="0"/>
        <pt x="0" y="155" on="1"/>
        <pt x="141" y="155" on="1"/>
        <pt x="552" y="1206" on="1"/>
        <pt x="604" y="1341" on="0"/>
        <pt x="770" y="1482" on="0"/>
        <pt x="877" y="1482" on="1"/>
        <pt x="993" y="1482" on="0"/>
        <pt x="1128" y="1335" on="0"/>
        <pt x="1128" y="1207" on="1"/>
        <pt x="1128" y="1072" on="0"/>
        <pt x="1019" y="780" on="1"/>
        <pt x="788" y="155" on="1"/>
        <pt x="1320" y="155" on="1"/>
        <pt x="1320" y="0" on="1"/>
      </contour>
      <contour>
        <pt x="304" y="155" on="1"/>
        <pt x="619" y="155" on="1"/>
        <pt x="870" y="818" on="1"/>
        <pt x="934" y="990" on="0"/>
        <pt x="977" y="1152" on="0"/>
        <pt x="977" y="1201" on="1"/>
        <pt x="977" y="1264" on="0"/>
        <pt x="922" y="1334" on="0"/>
        <pt x="868" y="1334" on="1"/>
        <pt x="815" y="1334" on="0"/>
        <pt x="731" y="1246" on="0"/>
        <pt x="694" y="1150" on="1"/>
      </contour>
    </TTGlyph>
    <TTGlyph name="glyph00119" xMin="100" yMin="0" xMax="1546" yMax="1482">
      <contour>
        <pt x="100" y="0" on="1"/>
        <pt x="100" y="155" on="1"/>
        <pt x="366" y="155" on="1"/>
        <pt x="777" y="1206" on="1"/>
        <pt x="829" y="1342" on="0"/>
        <pt x="998" y="1482" on="0"/>
        <pt x="1103" y="1482" on="1"/>
        <pt x="1219" y="1482" on="0"/>
        <pt x="1354" y="1335" on="0"/>
        <pt x="1354" y="1207" on="1"/>
        <pt x="1354" y="1141" on="0"/>
        <pt x="1305" y="945" on="0"/>
        <pt x="1244" y="780" on="1"/>
        <pt x="1013" y="155" on="1"/>
        <pt x="1546" y="155" on="1"/>
        <pt x="1546" y="0" on="1"/>
      </contour>
      <contour>
        <pt x="529" y="155" on="1"/>
        <pt x="844" y="155" on="1"/>
        <pt x="1097" y="818" on="1"/>
        <pt x="1158" y="981" on="0"/>
        <pt x="1203" y="1151" on="0"/>
        <pt x="1203" y="1201" on="1"/>
        <pt x="1203" y="1265" on="0"/>
        <pt x="1145" y="1334" on="0"/>
        <pt x="1094" y="1334" on="1"/>
        <pt x="990" y="1334" on="0"/>
        <pt x="919" y="1150" on="1"/>
      </contour>
    </TTGlyph>
    <TTGlyph name="glyph00120" xMin="120" yMin="0" xMax="740" yMax="695">
      <contour>
        <pt x="740" y="0" on="1"/>
        <pt x="255" y="0" on="1"/>
        <pt x="120" y="0" on="0"/>
        <pt x="120" y="128" on="1"/>
        <pt x="120" y="236" on="0"/>
        <pt x="372" y="580" on="0"/>
        <pt x="521" y="695" on="1"/>
        <pt x="616" y="604" on="1"/>
        <pt x="525" y="524" on="0"/>
        <pt x="288" y="230" on="0"/>
        <pt x="267" y="155" on="1"/>
        <pt x="740" y="155" on="1"/>
      </contour>
    </TTGlyph>
    <TTGlyph name="glyph00121" xMin="120" yMin="0" xMax="640" yMax="695">
      <contour>
        <pt x="640" y="0" on="1"/>
        <pt x="255" y="0" on="1"/>
        <pt x="120" y="0" on="0"/>
        <pt x="120" y="128" on="1"/>
        <pt x="120" y="236" on="0"/>
        <pt x="372" y="580" on="0"/>
        <pt x="521" y="695" on="1"/>
        <pt x="616" y="604" on="1"/>
        <pt x="525" y="524" on="0"/>
        <pt x="288" y="230" on="0"/>
        <pt x="267" y="155" on="1"/>
        <pt x="640" y="155" on="1"/>
      </contour>
    </TTGlyph>
    <TTGlyph name="glyph00122" xMin="130" yMin="0" xMax="1017" yMax="670">
      <contour>
        <pt x="809" y="155" on="1"/>
        <pt x="805" y="289" on="0"/>
        <pt x="757" y="450" on="0"/>
        <pt x="665" y="520" on="0"/>
        <pt x="583" y="520" on="1"/>
        <pt x="505" y="520" on="0"/>
        <pt x="365" y="432" on="0"/>
        <pt x="279" y="289" on="0"/>
        <pt x="279" y="223" on="1"/>
        <pt x="279" y="194" on="0"/>
        <pt x="316" y="155" on="0"/>
        <pt x="354" y="155" on="1"/>
      </contour>
      <contour>
        <pt x="1017" y="155" on="1"/>
        <pt x="1017" y="0" on="1"/>
        <pt x="335" y="0" on="1"/>
        <pt x="238" y="0" on="0"/>
        <pt x="130" y="103" on="0"/>
        <pt x="130" y="191" on="1"/>
        <pt x="130" y="314" on="0"/>
        <pt x="254" y="537" on="0"/>
        <pt x="471" y="670" on="0"/>
        <pt x="597" y="670" on="1"/>
        <pt x="957" y="670" on="0"/>
        <pt x="966" y="155" on="1"/>
      </contour>
    </TTGlyph>
    <TTGlyph name="glyph00123" xMin="120" yMin="-11" xMax="1541" yMax="690">
      <contour>
        <pt x="1517" y="0" on="1"/>
        <pt x="1403" y="0" on="0"/>
        <pt x="1367" y="88" on="1"/>
        <pt x="1347" y="57" on="0"/>
        <pt x="1278" y="21" on="0"/>
        <pt x="1167" y="2" on="0"/>
        <pt x="1002" y="-2" on="0"/>
        <pt x="518" y="-11" on="0"/>
        <pt x="328" y="-11" on="1"/>
        <pt x="231" y="-11" on="0"/>
        <pt x="120" y="89" on="0"/>
        <pt x="120" y="180" on="1"/>
        <pt x="120" y="268" on="0"/>
        <pt x="248" y="427" on="0"/>
        <pt x="544" y="585" on="0"/>
        <pt x="904" y="690" on="0"/>
        <pt x="1026" y="690" on="1"/>
        <pt x="1195" y="690" on="0"/>
        <pt x="1398" y="493" on="0"/>
        <pt x="1448" y="295" on="1"/>
        <pt x="1469" y="212" on="0"/>
        <pt x="1490" y="174" on="0"/>
        <pt x="1519" y="155" on="0"/>
        <pt x="1541" y="155" on="1"/>
        <pt x="1541" y="0" on="1"/>
      </contour>
      <contour>
        <pt x="1004" y="540" on="1"/>
        <pt x="913" y="540" on="0"/>
        <pt x="529" y="414" on="0"/>
        <pt x="272" y="271" on="0"/>
        <pt x="272" y="210" on="1"/>
        <pt x="272" y="145" on="0"/>
        <pt x="358" y="145" on="1"/>
        <pt x="979" y="153" on="1"/>
        <pt x="1101" y="155" on="1"/>
        <pt x="1196" y="155" on="0"/>
        <pt x="1299" y="204" on="0"/>
        <pt x="1299" y="249" on="1"/>
        <pt x="1299" y="288" on="0"/>
        <pt x="1217" y="468" on="0"/>
        <pt x="1085" y="544" on="0"/>
      </contour>
    </TTGlyph>
    <TTGlyph name="glyph00124" xMin="-81" yMin="0" xMax="1003" yMax="417">
      <contour>
        <pt x="383" y="121" on="1"/>
        <pt x="286" y="0" on="0"/>
        <pt x="60" y="0" on="1"/>
        <pt x="0" y="0" on="1"/>
        <pt x="-33" y="0" on="0"/>
        <pt x="-81" y="41" on="0"/>
        <pt x="-81" y="78" on="1"/>
        <pt x="-81" y="114" on="0"/>
        <pt x="-33" y="155" on="0"/>
        <pt x="0" y="155" on="1"/>
        <pt x="80" y="155" on="1"/>
        <pt x="207" y="155" on="0"/>
        <pt x="326" y="261" on="0"/>
        <pt x="326" y="386" on="1"/>
        <pt x="464" y="402" on="1"/>
        <pt x="466" y="379" on="1"/>
        <pt x="466" y="356" on="1"/>
        <pt x="466" y="315" on="0"/>
        <pt x="460" y="276" on="1"/>
        <pt x="469" y="220" on="0"/>
        <pt x="548" y="155" on="0"/>
        <pt x="604" y="155" on="1"/>
        <pt x="769" y="155" on="0"/>
        <pt x="769" y="346" on="1"/>
        <pt x="767" y="391" on="1"/>
        <pt x="904" y="417" on="1"/>
        <pt x="911" y="385" on="0"/>
        <pt x="911" y="323" on="1"/>
        <pt x="911" y="298" on="1"/>
        <pt x="910" y="276" on="1"/>
        <pt x="918" y="155" on="0"/>
        <pt x="1003" y="155" on="1"/>
        <pt x="1003" y="0" on="1"/>
        <pt x="943" y="0" on="0"/>
        <pt x="844" y="59" on="0"/>
        <pt x="820" y="110" on="1"/>
        <pt x="750" y="0" on="0"/>
        <pt x="610" y="0" on="1"/>
        <pt x="457" y="0" on="0"/>
      </contour>
    </TTGlyph>
    <TTGlyph name="glyph00125" xMin="100" yMin="0" xMax="1344" yMax="417">
      <contour>
        <pt x="951" y="0" on="1"/>
        <pt x="793" y="0" on="0"/>
        <pt x="719" y="121" on="1"/>
        <pt x="675" y="66" on="0"/>
        <pt x="503" y="0" on="0"/>
        <pt x="381" y="0" on="1"/>
        <pt x="100" y="0" on="1"/>
        <pt x="100" y="155" on="1"/>
        <pt x="399" y="155" on="1"/>
        <pt x="533" y="155" on="0"/>
        <pt x="662" y="261" on="0"/>
        <pt x="667" y="386" on="1"/>
        <pt x="805" y="402" on="1"/>
        <pt x="807" y="379" on="1"/>
        <pt x="807" y="356" on="1"/>
        <pt x="807" y="315" on="0"/>
        <pt x="801" y="276" on="1"/>
        <pt x="810" y="220" on="0"/>
        <pt x="889" y="155" on="0"/>
        <pt x="945" y="155" on="1"/>
        <pt x="1110" y="155" on="0"/>
        <pt x="1110" y="346" on="1"/>
        <pt x="1108" y="391" on="1"/>
        <pt x="1245" y="417" on="1"/>
        <pt x="1252" y="385" on="0"/>
        <pt x="1252" y="323" on="1"/>
        <pt x="1252" y="298" on="1"/>
        <pt x="1251" y="276" on="1"/>
        <pt x="1259" y="155" on="0"/>
        <pt x="1344" y="155" on="1"/>
        <pt x="1344" y="0" on="1"/>
        <pt x="1284" y="0" on="0"/>
        <pt x="1185" y="59" on="0"/>
        <pt x="1161" y="110" on="1"/>
        <pt x="1091" y="0" on="0"/>
      </contour>
    </TTGlyph>
    <TTGlyph name="glyph00126" xMin="-81" yMin="0" xMax="1128" yMax="1482">
      <contour>
        <pt x="0" y="0" on="1"/>
        <pt x="-34" y="0" on="0"/>
        <pt x="-81" y="41" on="0"/>
        <pt x="-81" y="78" on="1"/>
        <pt x="-81" y="114" on="0"/>
        <pt x="-34" y="155" on="0"/>
        <pt x="0" y="155" on="1"/>
        <pt x="141" y="155" on="1"/>
        <pt x="552" y="1206" on="1"/>
        <pt x="604" y="1341" on="0"/>
        <pt x="770" y="1482" on="0"/>
        <pt x="877" y="1482" on="1"/>
        <pt x="993" y="1482" on="0"/>
        <pt x="1128" y="1335" on="0"/>
        <pt x="1128" y="1207" on="1"/>
        <pt x="1128" y="1072" on="0"/>
        <pt x="1019" y="780" on="1"/>
        <pt x="788" y="155" on="1"/>
        <pt x="1052" y="155" on="1"/>
        <pt x="1052" y="0" on="1"/>
      </contour>
      <contour>
        <pt x="304" y="155" on="1"/>
        <pt x="619" y="155" on="1"/>
        <pt x="870" y="818" on="1"/>
        <pt x="934" y="990" on="0"/>
        <pt x="977" y="1152" on="0"/>
        <pt x="977" y="1201" on="1"/>
        <pt x="977" y="1264" on="0"/>
        <pt x="922" y="1334" on="0"/>
        <pt x="868" y="1334" on="1"/>
        <pt x="815" y="1334" on="0"/>
        <pt x="731" y="1246" on="0"/>
        <pt x="694" y="1150" on="1"/>
      </contour>
    </TTGlyph>
    <TTGlyph name="glyph00127" xMin="100" yMin="0" xMax="1354" yMax="1482">
      <contour>
        <pt x="100" y="0" on="1"/>
        <pt x="100" y="155" on="1"/>
        <pt x="366" y="155" on="1"/>
        <pt x="777" y="1206" on="1"/>
        <pt x="829" y="1342" on="0"/>
        <pt x="998" y="1482" on="0"/>
        <pt x="1103" y="1482" on="1"/>
        <pt x="1219" y="1482" on="0"/>
        <pt x="1354" y="1335" on="0"/>
        <pt x="1354" y="1207" on="1"/>
        <pt x="1354" y="1141" on="0"/>
        <pt x="1305" y="945" on="0"/>
        <pt x="1244" y="780" on="1"/>
        <pt x="1013" y="155" on="1"/>
        <pt x="1277" y="155" on="1"/>
        <pt x="1277" y="0" on="1"/>
      </contour>
      <contour>
        <pt x="529" y="155" on="1"/>
        <pt x="844" y="155" on="1"/>
        <pt x="1097" y="818" on="1"/>
        <pt x="1158" y="981" on="0"/>
        <pt x="1203" y="1151" on="0"/>
        <pt x="1203" y="1201" on="1"/>
        <pt x="1203" y="1265" on="0"/>
        <pt x="1145" y="1334" on="0"/>
        <pt x="1094" y="1334" on="1"/>
        <pt x="990" y="1334" on="0"/>
        <pt x="919" y="1150" on="1"/>
      </contour>
    </TTGlyph>
    <TTGlyph name="uni0840" xMin="140" yMin="-94" xMax="954" yMax="672">
      <contour>
        <pt x="140" y="242" on="1"/>
        <pt x="140" y="358" on="0"/>
        <pt x="252" y="558" on="0"/>
        <pt x="447" y="672" on="0"/>
        <pt x="565" y="672" on="1"/>
        <pt x="677" y="672" on="0"/>
        <pt x="856" y="566" on="0"/>
        <pt x="954" y="384" on="0"/>
        <pt x="954" y="272" on="1"/>
        <pt x="954" y="109" on="0"/>
        <pt x="725" y="-94" on="0"/>
        <pt x="548" y="-94" on="1"/>
        <pt x="357" y="-94" on="0"/>
        <pt x="140" y="86" on="0"/>
      </contour>
      <contour>
        <pt x="286" y="262" on="1"/>
        <pt x="286" y="61" on="0"/>
        <pt x="548" y="61" on="1"/>
        <pt x="672" y="61" on="0"/>
        <pt x="808" y="171" on="0"/>
        <pt x="808" y="272" on="1"/>
        <pt x="808" y="384" on="0"/>
        <pt x="672" y="522" on="0"/>
        <pt x="565" y="522" on="1"/>
        <pt x="454" y="522" on="0"/>
        <pt x="286" y="370" on="0"/>
      </contour>
    </TTGlyph>
    <TTGlyph name="uni0841" xMin="100" yMin="0" xMax="1731" yMax="1023">
      <contour>
        <pt x="1097" y="486" on="1"/>
        <pt x="1097" y="155" on="1"/>
        <pt x="1731" y="155" on="1"/>
        <pt x="1731" y="0" on="1"/>
        <pt x="100" y="0" on="1"/>
        <pt x="100" y="155" on="1"/>
        <pt x="947" y="155" on="1"/>
        <pt x="947" y="486" on="1"/>
        <pt x="409" y="486" on="1"/>
        <pt x="409" y="613" on="1"/>
        <pt x="425" y="625" on="0"/>
        <pt x="500" y="705" on="0"/>
        <pt x="767" y="1019" on="1"/>
        <pt x="880" y="946" on="1"/>
        <pt x="754" y="796" on="1"/>
        <pt x="667" y="693" on="0"/>
        <pt x="597" y="636" on="1"/>
        <pt x="1129" y="636" on="1"/>
        <pt x="1279" y="636" on="0"/>
        <pt x="1418" y="668" on="0"/>
        <pt x="1477" y="743" on="0"/>
        <pt x="1477" y="821" on="1"/>
        <pt x="1477" y="888" on="0"/>
        <pt x="1463" y="986" on="1"/>
        <pt x="1605" y="1023" on="1"/>
        <pt x="1625" y="943" on="0"/>
        <pt x="1625" y="838" on="1"/>
        <pt x="1625" y="650" on="0"/>
        <pt x="1411" y="486" on="0"/>
        <pt x="1175" y="486" on="1"/>
      </contour>
    </TTGlyph>
    <TTGlyph name="uni0842" xMin="100" yMin="0" xMax="876" yMax="1462">
      <contour>
        <pt x="100" y="155" on="1"/>
        <pt x="671" y="155" on="1"/>
        <pt x="568" y="282" on="1"/>
        <pt x="198" y="736" on="0"/>
        <pt x="198" y="1064" on="1"/>
        <pt x="198" y="1169" on="0"/>
        <pt x="280" y="1354" on="0"/>
        <pt x="426" y="1462" on="0"/>
        <pt x="525" y="1462" on="1"/>
        <pt x="613" y="1462" on="0"/>
        <pt x="754" y="1374" on="0"/>
        <pt x="830" y="1224" on="0"/>
        <pt x="830" y="1135" on="1"/>
        <pt x="830" y="1003" on="0"/>
        <pt x="650" y="861" on="0"/>
        <pt x="482" y="861" on="1"/>
        <pt x="383" y="866" on="1"/>
        <pt x="430" y="731" on="0"/>
        <pt x="714" y="328" on="0"/>
        <pt x="876" y="153" on="1"/>
        <pt x="876" y="0" on="1"/>
        <pt x="100" y="0" on="1"/>
      </contour>
      <contour>
        <pt x="350" y="1075" on="1"/>
        <pt x="350" y="1034" on="0"/>
        <pt x="356" y="1009" on="1"/>
        <pt x="392" y="998" on="0"/>
        <pt x="468" y="998" on="1"/>
        <pt x="573" y="998" on="0"/>
        <pt x="683" y="1072" on="0"/>
        <pt x="683" y="1140" on="1"/>
        <pt x="683" y="1219" on="0"/>
        <pt x="595" y="1317" on="0"/>
        <pt x="525" y="1317" on="1"/>
        <pt x="448" y="1317" on="0"/>
        <pt x="350" y="1183" on="0"/>
      </contour>
    </TTGlyph>
    <TTGlyph name="uni0843" xMin="100" yMin="0" xMax="1185" yMax="1009">
      <contour>
        <pt x="1185" y="0" on="1"/>
        <pt x="100" y="0" on="1"/>
        <pt x="100" y="155" on="1"/>
        <pt x="1035" y="155" on="1"/>
        <pt x="1035" y="486" on="1"/>
        <pt x="449" y="486" on="1"/>
        <pt x="449" y="1009" on="1"/>
        <pt x="599" y="1009" on="1"/>
        <pt x="599" y="636" on="1"/>
        <pt x="1035" y="636" on="1"/>
        <pt x="1035" y="1009" on="1"/>
        <pt x="1185" y="1009" on="1"/>
      </contour>
    </TTGlyph>
    <TTGlyph name="uni0844" xMin="100" yMin="0" xMax="1715" yMax="468">
      <contour>
        <pt x="100" y="0" on="1"/>
        <pt x="100" y="155" on="1"/>
        <pt x="399" y="155" on="1"/>
        <pt x="533" y="155" on="0"/>
        <pt x="662" y="261" on="0"/>
        <pt x="667" y="386" on="1"/>
        <pt x="805" y="402" on="1"/>
        <pt x="807" y="379" on="1"/>
        <pt x="807" y="356" on="1"/>
        <pt x="807" y="315" on="0"/>
        <pt x="801" y="276" on="1"/>
        <pt x="810" y="220" on="0"/>
        <pt x="889" y="155" on="0"/>
        <pt x="945" y="155" on="1"/>
        <pt x="1129" y="155" on="0"/>
        <pt x="1129" y="396" on="1"/>
        <pt x="1268" y="412" on="1"/>
        <pt x="1270" y="384" on="1"/>
        <pt x="1270" y="356" on="1"/>
        <pt x="1270" y="316" on="0"/>
        <pt x="1262" y="268" on="1"/>
        <pt x="1268" y="216" on="0"/>
        <pt x="1342" y="155" on="0"/>
        <pt x="1394" y="155" on="1"/>
        <pt x="1570" y="155" on="0"/>
        <pt x="1570" y="379" on="1"/>
        <pt x="1570" y="410" on="0"/>
        <pt x="1566" y="440" on="1"/>
        <pt x="1701" y="468" on="1"/>
        <pt x="1715" y="416" on="0"/>
        <pt x="1715" y="349" on="1"/>
        <pt x="1715" y="193" on="0"/>
        <pt x="1548" y="0" on="0"/>
        <pt x="1406" y="0" on="1"/>
        <pt x="1249" y="0" on="0"/>
        <pt x="1188" y="122" on="1"/>
        <pt x="1104" y="0" on="0"/>
        <pt x="954" y="0" on="1"/>
        <pt x="790" y="0" on="0"/>
        <pt x="719" y="122" on="1"/>
        <pt x="675" y="67" on="0"/>
        <pt x="503" y="0" on="0"/>
        <pt x="381" y="0" on="1"/>
      </contour>
    </TTGlyph>
    <TTGlyph name="uni0845" xMin="100" yMin="0" xMax="683" yMax="690">
      <contour>
        <pt x="100" y="0" on="1"/>
        <pt x="100" y="155" on="1"/>
        <pt x="381" y="155" on="1"/>
        <pt x="474" y="155" on="0"/>
        <pt x="533" y="201" on="0"/>
        <pt x="533" y="256" on="1"/>
        <pt x="533" y="312" on="0"/>
        <pt x="469" y="506" on="0"/>
        <pt x="415" y="600" on="1"/>
        <pt x="540" y="690" on="1"/>
        <pt x="606" y="586" on="0"/>
        <pt x="683" y="345" on="0"/>
        <pt x="683" y="245" on="1"/>
        <pt x="683" y="160" on="0"/>
        <pt x="619" y="54" on="0"/>
        <pt x="486" y="0" on="0"/>
        <pt x="351" y="0" on="1"/>
      </contour>
    </TTGlyph>
    <TTGlyph name="uni0846" xMin="180" yMin="-326" xMax="330" yMax="1422">
      <contour>
        <pt x="180" y="-326" on="1"/>
        <pt x="180" y="1422" on="1"/>
        <pt x="330" y="1422" on="1"/>
        <pt x="330" y="-326" on="1"/>
      </contour>
    </TTGlyph>
    <TTGlyph name="uni0847" xMin="120" yMin="-11" xMax="1457" yMax="690">
      <contour>
        <pt x="1457" y="212" on="1"/>
        <pt x="1457" y="105" on="0"/>
        <pt x="1286" y="3" on="0"/>
        <pt x="1098" y="0" on="1"/>
        <pt x="717" y="-6" on="1"/>
        <pt x="328" y="-11" on="1"/>
        <pt x="231" y="-11" on="0"/>
        <pt x="120" y="91" on="0"/>
        <pt x="120" y="180" on="1"/>
        <pt x="120" y="318" on="0"/>
        <pt x="413" y="533" on="0"/>
        <pt x="875" y="690" on="0"/>
        <pt x="1026" y="690" on="1"/>
        <pt x="1218" y="690" on="0"/>
        <pt x="1457" y="428" on="0"/>
      </contour>
      <contour>
        <pt x="1297" y="248" on="1"/>
        <pt x="1297" y="310" on="0"/>
        <pt x="1223" y="465" on="0"/>
        <pt x="1091" y="540" on="0"/>
        <pt x="1004" y="540" on="1"/>
        <pt x="909" y="540" on="0"/>
        <pt x="523" y="413" on="0"/>
        <pt x="272" y="269" on="0"/>
        <pt x="272" y="210" on="1"/>
        <pt x="272" y="145" on="0"/>
        <pt x="359" y="145" on="1"/>
        <pt x="1002" y="153" on="1"/>
        <pt x="1141" y="155" on="1"/>
        <pt x="1297" y="155" on="0"/>
      </contour>
    </TTGlyph>
    <TTGlyph name="uni0848" xMin="80" yMin="0" xMax="1334" yMax="1482">
      <contour>
        <pt x="1230" y="0" on="1"/>
        <pt x="80" y="0" on="1"/>
        <pt x="80" y="155" on="1"/>
        <pt x="346" y="155" on="1"/>
        <pt x="757" y="1206" on="1"/>
        <pt x="809" y="1342" on="0"/>
        <pt x="978" y="1482" on="0"/>
        <pt x="1083" y="1482" on="1"/>
        <pt x="1199" y="1482" on="0"/>
        <pt x="1334" y="1335" on="0"/>
        <pt x="1334" y="1207" on="1"/>
        <pt x="1334" y="1141" on="0"/>
        <pt x="1285" y="945" on="0"/>
        <pt x="1224" y="780" on="1"/>
        <pt x="993" y="155" on="1"/>
        <pt x="1230" y="155" on="1"/>
      </contour>
      <contour>
        <pt x="509" y="155" on="1"/>
        <pt x="824" y="155" on="1"/>
        <pt x="1077" y="818" on="1"/>
        <pt x="1138" y="981" on="0"/>
        <pt x="1183" y="1151" on="0"/>
        <pt x="1183" y="1201" on="1"/>
        <pt x="1183" y="1265" on="0"/>
        <pt x="1125" y="1334" on="0"/>
        <pt x="1074" y="1334" on="1"/>
        <pt x="970" y="1334" on="0"/>
        <pt x="899" y="1150" on="1"/>
      </contour>
    </TTGlyph>
    <TTGlyph name="uni0849" xMin="120" yMin="0" xMax="806" yMax="695">
      <contour>
        <pt x="806" y="0" on="1"/>
        <pt x="255" y="0" on="1"/>
        <pt x="191" y="0" on="0"/>
        <pt x="120" y="58" on="0"/>
        <pt x="120" y="128" on="1"/>
        <pt x="120" y="193" on="0"/>
        <pt x="221" y="386" on="0"/>
        <pt x="423" y="621" on="0"/>
        <pt x="520" y="695" on="1"/>
        <pt x="615" y="604" on="1"/>
        <pt x="524" y="524" on="0"/>
        <pt x="287" y="230" on="0"/>
        <pt x="266" y="155" on="1"/>
        <pt x="806" y="155" on="1"/>
      </contour>
    </TTGlyph>
    <TTGlyph name="uni084A" xMin="140" yMin="-740" xMax="1254" yMax="694">
      <contour>
        <pt x="715" y="-575" on="1"/>
        <pt x="798" y="-485" on="0"/>
        <pt x="1031" y="-129" on="0"/>
        <pt x="1088" y="0" on="1"/>
        <pt x="814" y="0" on="1"/>
        <pt x="739" y="0" on="0"/>
        <pt x="661" y="74" on="0"/>
        <pt x="661" y="141" on="1"/>
        <pt x="661" y="255" on="0"/>
        <pt x="911" y="602" on="0"/>
        <pt x="1043" y="694" on="1"/>
        <pt x="1140" y="597" on="1"/>
        <pt x="1015" y="499" on="0"/>
        <pt x="808" y="223" on="0"/>
        <pt x="801" y="155" on="1"/>
        <pt x="1151" y="155" on="1"/>
        <pt x="1196" y="155" on="0"/>
        <pt x="1254" y="107" on="0"/>
        <pt x="1254" y="61" on="1"/>
        <pt x="1254" y="29" on="0"/>
        <pt x="1241" y="-6" on="1"/>
        <pt x="1175" y="-180" on="0"/>
        <pt x="914" y="-568" on="0"/>
        <pt x="748" y="-740" on="1"/>
        <pt x="641" y="-740" on="1"/>
        <pt x="507" y="-519" on="0"/>
        <pt x="306" y="-80" on="0"/>
        <pt x="178" y="290" on="0"/>
        <pt x="140" y="467" on="1"/>
        <pt x="281" y="505" on="1"/>
        <pt x="357" y="217" on="0"/>
        <pt x="568" y="-305" on="0"/>
      </contour>
    </TTGlyph>
    <TTGlyph name="uni084B" xMin="100" yMin="0" xMax="742" yMax="1422">
      <contour>
        <pt x="100" y="0" on="1"/>
        <pt x="100" y="155" on="1"/>
        <pt x="592" y="155" on="1"/>
        <pt x="592" y="1422" on="1"/>
        <pt x="742" y="1422" on="1"/>
        <pt x="742" y="0" on="1"/>
      </contour>
    </TTGlyph>
    <TTGlyph name="uni084C" xMin="100" yMin="-326" xMax="1859" yMax="1019">
      <contour>
        <pt x="1859" y="1009" on="1"/>
        <pt x="1859" y="-326" on="1"/>
        <pt x="1709" y="-326" on="1"/>
        <pt x="1709" y="486" on="1"/>
        <pt x="1292" y="486" on="1"/>
        <pt x="1346" y="417" on="0"/>
        <pt x="1346" y="321" on="1"/>
        <pt x="1346" y="167" on="0"/>
        <pt x="1168" y="0" on="0"/>
        <pt x="1012" y="0" on="1"/>
        <pt x="100" y="0" on="1"/>
        <pt x="100" y="155" on="1"/>
        <pt x="1012" y="155" on="1"/>
        <pt x="1099" y="155" on="0"/>
        <pt x="1195" y="240" on="0"/>
        <pt x="1195" y="321" on="1"/>
        <pt x="1195" y="398" on="0"/>
        <pt x="1103" y="486" on="0"/>
        <pt x="1020" y="486" on="1"/>
        <pt x="403" y="486" on="1"/>
        <pt x="403" y="597" on="1"/>
        <pt x="417" y="604" on="0"/>
        <pt x="457" y="631" on="0"/>
        <pt x="542" y="697" on="0"/>
        <pt x="937" y="1019" on="1"/>
        <pt x="1034" y="926" on="1"/>
        <pt x="861" y="781" on="1"/>
        <pt x="827" y="753" on="0"/>
        <pt x="687" y="661" on="0"/>
        <pt x="639" y="636" on="1"/>
        <pt x="1709" y="636" on="1"/>
        <pt x="1709" y="1009" on="1"/>
      </contour>
    </TTGlyph>
    <TTGlyph name="uni084D" xMin="140" yMin="-740" xMax="1062" yMax="505">
      <contour>
        <pt x="515" y="-740" on="1"/>
        <pt x="376" y="-458" on="0"/>
        <pt x="178" y="190" on="0"/>
        <pt x="140" y="479" on="1"/>
        <pt x="283" y="505" on="1"/>
        <pt x="338" y="220" on="0"/>
        <pt x="414" y="-80" on="0"/>
        <pt x="517" y="-374" on="0"/>
        <pt x="590" y="-545" on="1"/>
        <pt x="711" y="-340" on="0"/>
        <pt x="906" y="163" on="0"/>
        <pt x="916" y="322" on="1"/>
        <pt x="916" y="427" on="0"/>
        <pt x="909" y="485" on="1"/>
        <pt x="1051" y="505" on="1"/>
        <pt x="1062" y="456" on="0"/>
        <pt x="1062" y="353" on="1"/>
        <pt x="1062" y="134" on="0"/>
        <pt x="784" y="-521" on="0"/>
        <pt x="621" y="-740" on="1"/>
      </contour>
    </TTGlyph>
    <TTGlyph name="uni084E" xMin="100" yMin="0" xMax="1893" yMax="670">
      <contour>
        <pt x="100" y="0" on="1"/>
        <pt x="100" y="155" on="1"/>
        <pt x="369" y="155" on="1"/>
        <pt x="503" y="155" on="0"/>
        <pt x="632" y="261" on="0"/>
        <pt x="637" y="386" on="1"/>
        <pt x="775" y="402" on="1"/>
        <pt x="777" y="379" on="1"/>
        <pt x="777" y="356" on="1"/>
        <pt x="777" y="316" on="0"/>
        <pt x="771" y="277" on="1"/>
        <pt x="790" y="206" on="0"/>
        <pt x="897" y="174" on="1"/>
        <pt x="1021" y="431" on="0"/>
        <pt x="1312" y="670" on="0"/>
        <pt x="1489" y="670" on="1"/>
        <pt x="1611" y="670" on="0"/>
        <pt x="1794" y="562" on="0"/>
        <pt x="1893" y="369" on="0"/>
        <pt x="1893" y="250" on="1"/>
        <pt x="1893" y="117" on="0"/>
        <pt x="1721" y="0" on="0"/>
        <pt x="1534" y="0" on="1"/>
        <pt x="1050" y="0" on="1"/>
        <pt x="917" y="0" on="0"/>
        <pt x="750" y="58" on="0"/>
        <pt x="691" y="125" on="1"/>
        <pt x="648" y="68" on="0"/>
        <pt x="475" y="0" on="0"/>
        <pt x="351" y="0" on="1"/>
      </contour>
      <contour>
        <pt x="1492" y="519" on="1"/>
        <pt x="1368" y="519" on="0"/>
        <pt x="1131" y="322" on="0"/>
        <pt x="1054" y="155" on="1"/>
        <pt x="1591" y="155" on="1"/>
        <pt x="1663" y="155" on="0"/>
        <pt x="1743" y="206" on="0"/>
        <pt x="1743" y="253" on="1"/>
        <pt x="1743" y="375" on="0"/>
        <pt x="1605" y="519" on="0"/>
      </contour>
    </TTGlyph>
    <TTGlyph name="uni084F" xMin="100" yMin="0" xMax="1588" yMax="1020">
      <contour>
        <pt x="402" y="486" on="1"/>
        <pt x="402" y="597" on="1"/>
        <pt x="432" y="612" on="0"/>
        <pt x="548" y="688" on="0"/>
        <pt x="564" y="700" on="1"/>
        <pt x="1006" y="1020" on="1"/>
        <pt x="1098" y="920" on="1"/>
        <pt x="869" y="754" on="1"/>
        <pt x="764" y="684" on="0"/>
        <pt x="668" y="636" on="1"/>
        <pt x="1254" y="636" on="1"/>
        <pt x="1413" y="636" on="0"/>
        <pt x="1588" y="473" on="0"/>
        <pt x="1588" y="321" on="1"/>
        <pt x="1588" y="167" on="0"/>
        <pt x="1410" y="0" on="0"/>
        <pt x="1254" y="0" on="1"/>
        <pt x="100" y="0" on="1"/>
        <pt x="100" y="155" on="1"/>
        <pt x="1254" y="155" on="1"/>
        <pt x="1343" y="155" on="0"/>
        <pt x="1438" y="244" on="0"/>
        <pt x="1438" y="321" on="1"/>
        <pt x="1438" y="400" on="0"/>
        <pt x="1342" y="486" on="0"/>
        <pt x="1254" y="486" on="1"/>
      </contour>
    </TTGlyph>
    <TTGlyph name="uni0850" xMin="140" yMin="-780" xMax="1334" yMax="676">
      <contour>
        <pt x="736" y="-606" on="1"/>
        <pt x="1009" y="-277" on="0"/>
        <pt x="1111" y="0" on="1"/>
        <pt x="975" y="0" on="1"/>
        <pt x="814" y="0" on="0"/>
        <pt x="647" y="151" on="0"/>
        <pt x="647" y="292" on="1"/>
        <pt x="647" y="387" on="0"/>
        <pt x="745" y="574" on="0"/>
        <pt x="904" y="676" on="0"/>
        <pt x="999" y="676" on="1"/>
        <pt x="1098" y="676" on="0"/>
        <pt x="1251" y="589" on="0"/>
        <pt x="1334" y="433" on="0"/>
        <pt x="1334" y="342" on="1"/>
        <pt x="1334" y="246" on="0"/>
        <pt x="1293" y="57" on="0"/>
        <pt x="1194" y="-182" on="0"/>
        <pt x="1075" y="-393" on="0"/>
        <pt x="941" y="-582" on="0"/>
        <pt x="774" y="-780" on="1"/>
        <pt x="669" y="-780" on="1"/>
        <pt x="533" y="-544" on="0"/>
        <pt x="353" y="-181" on="0"/>
        <pt x="179" y="296" on="0"/>
        <pt x="140" y="465" on="1"/>
        <pt x="280" y="505" on="1"/>
        <pt x="362" y="232" on="0"/>
        <pt x="477" y="-75" on="0"/>
        <pt x="631" y="-409" on="0"/>
      </contour>
      <contour>
        <pt x="789" y="315" on="1"/>
        <pt x="789" y="155" on="0"/>
        <pt x="979" y="155" on="1"/>
        <pt x="1164" y="155" on="1"/>
        <pt x="1187" y="228" on="0"/>
        <pt x="1187" y="321" on="1"/>
        <pt x="1187" y="414" on="0"/>
        <pt x="1081" y="529" on="0"/>
        <pt x="996" y="529" on="1"/>
        <pt x="940" y="529" on="0"/>
        <pt x="845" y="467" on="0"/>
        <pt x="789" y="364" on="0"/>
      </contour>
    </TTGlyph>
    <TTGlyph name="uni0851" xMin="140" yMin="-740" xMax="1955" yMax="505">
      <contour>
        <pt x="515" y="-740" on="1"/>
        <pt x="394" y="-517" on="0"/>
        <pt x="179" y="168" on="0"/>
        <pt x="140" y="479" on="1"/>
        <pt x="283" y="505" on="1"/>
        <pt x="338" y="194" on="0"/>
        <pt x="486" y="-307" on="0"/>
        <pt x="587" y="-554" on="1"/>
        <pt x="655" y="-446" on="0"/>
        <pt x="797" y="-130" on="0"/>
        <pt x="890" y="178" on="0"/>
        <pt x="896" y="282" on="1"/>
        <pt x="896" y="333" on="1"/>
        <pt x="894" y="394" on="1"/>
        <pt x="1031" y="414" on="1"/>
        <pt x="1042" y="365" on="0"/>
        <pt x="1042" y="293" on="1"/>
        <pt x="1042" y="273" on="1"/>
        <pt x="1051" y="220" on="0"/>
        <pt x="1128" y="155" on="0"/>
        <pt x="1185" y="155" on="1"/>
        <pt x="1369" y="155" on="0"/>
        <pt x="1369" y="396" on="1"/>
        <pt x="1508" y="412" on="1"/>
        <pt x="1510" y="384" on="1"/>
        <pt x="1510" y="356" on="1"/>
        <pt x="1510" y="304" on="0"/>
        <pt x="1500" y="258" on="1"/>
        <pt x="1508" y="214" on="0"/>
        <pt x="1584" y="155" on="0"/>
        <pt x="1634" y="155" on="1"/>
        <pt x="1720" y="155" on="0"/>
        <pt x="1811" y="255" on="0"/>
        <pt x="1811" y="356" on="1"/>
        <pt x="1806" y="438" on="1"/>
        <pt x="1941" y="468" on="1"/>
        <pt x="1955" y="416" on="0"/>
        <pt x="1955" y="349" on="1"/>
        <pt x="1955" y="193" on="0"/>
        <pt x="1788" y="0" on="0"/>
        <pt x="1646" y="0" on="1"/>
        <pt x="1494" y="0" on="0"/>
        <pt x="1428" y="122" on="1"/>
        <pt x="1344" y="0" on="0"/>
        <pt x="1194" y="0" on="1"/>
        <pt x="1074" y="0" on="0"/>
        <pt x="1012" y="82" on="1"/>
        <pt x="988" y="-19" on="0"/>
        <pt x="855" y="-355" on="0"/>
        <pt x="701" y="-637" on="0"/>
        <pt x="621" y="-740" on="1"/>
      </contour>
    </TTGlyph>
    <TTGlyph name="uni0852" xMin="100" yMin="0" xMax="1595" yMax="1019">
      <contour>
        <pt x="100" y="155" on="1"/>
        <pt x="709" y="155" on="1"/>
        <pt x="803" y="155" on="0"/>
        <pt x="903" y="241" on="0"/>
        <pt x="903" y="321" on="1"/>
        <pt x="903" y="400" on="0"/>
        <pt x="806" y="486" on="0"/>
        <pt x="719" y="486" on="1"/>
        <pt x="409" y="486" on="1"/>
        <pt x="409" y="598" on="1"/>
        <pt x="444" y="625" on="0"/>
        <pt x="510" y="698" on="1"/>
        <pt x="797" y="1019" on="1"/>
        <pt x="909" y="944" on="1"/>
        <pt x="750" y="762" on="1"/>
        <pt x="690" y="695" on="0"/>
        <pt x="616" y="636" on="1"/>
        <pt x="1445" y="636" on="1"/>
        <pt x="1445" y="998" on="1"/>
        <pt x="1595" y="998" on="1"/>
        <pt x="1595" y="0" on="1"/>
        <pt x="100" y="0" on="1"/>
      </contour>
      <contour>
        <pt x="1053" y="321" on="1"/>
        <pt x="1053" y="206" on="0"/>
        <pt x="956" y="155" on="1"/>
        <pt x="1445" y="155" on="1"/>
        <pt x="1445" y="486" on="1"/>
        <pt x="966" y="486" on="1"/>
        <pt x="1053" y="435" on="0"/>
      </contour>
    </TTGlyph>
    <TTGlyph name="uni0853" xMin="100" yMin="0" xMax="1531" yMax="1019">
      <contour>
        <pt x="100" y="155" on="1"/>
        <pt x="1381" y="155" on="1"/>
        <pt x="1381" y="486" on="1"/>
        <pt x="409" y="486" on="1"/>
        <pt x="409" y="613" on="1"/>
        <pt x="459" y="654" on="0"/>
        <pt x="546" y="752" on="1"/>
        <pt x="782" y="1019" on="1"/>
        <pt x="895" y="943" on="1"/>
        <pt x="750" y="777" on="1"/>
        <pt x="730" y="753" on="0"/>
        <pt x="634" y="665" on="0"/>
        <pt x="597" y="636" on="1"/>
        <pt x="1381" y="636" on="1"/>
        <pt x="1381" y="998" on="1"/>
        <pt x="1531" y="998" on="1"/>
        <pt x="1531" y="0" on="1"/>
        <pt x="100" y="0" on="1"/>
      </contour>
    </TTGlyph>
    <TTGlyph name="uni0854" xMin="140" yMin="-492" xMax="1730" yMax="690">
      <contour>
        <pt x="1114" y="0" on="1"/>
        <pt x="986" y="-492" on="1"/>
        <pt x="835" y="-492" on="1"/>
        <pt x="804" y="-356" on="0"/>
        <pt x="786" y="-255" on="1"/>
        <pt x="736" y="0" on="1"/>
        <pt x="513" y="0" on="1"/>
        <pt x="337" y="0" on="0"/>
        <pt x="140" y="169" on="0"/>
        <pt x="140" y="316" on="1"/>
        <pt x="140" y="410" on="0"/>
        <pt x="226" y="586" on="0"/>
        <pt x="378" y="690" on="0"/>
        <pt x="471" y="690" on="1"/>
        <pt x="549" y="690" on="0"/>
        <pt x="660" y="646" on="0"/>
        <pt x="750" y="545" on="0"/>
        <pt x="812" y="377" on="0"/>
        <pt x="895" y="-117" on="0"/>
        <pt x="906" y="-309" on="1"/>
        <pt x="925" y="-309" on="1"/>
        <pt x="946" y="-159" on="0"/>
        <pt x="1013" y="187" on="0"/>
        <pt x="1085" y="449" on="0"/>
        <pt x="1176" y="602" on="0"/>
        <pt x="1310" y="690" on="0"/>
        <pt x="1412" y="690" on="1"/>
        <pt x="1506" y="690" on="0"/>
        <pt x="1650" y="600" on="0"/>
        <pt x="1730" y="439" on="0"/>
        <pt x="1730" y="344" on="1"/>
        <pt x="1730" y="179" on="0"/>
        <pt x="1523" y="0" on="0"/>
        <pt x="1338" y="0" on="1"/>
      </contour>
      <contour>
        <pt x="287" y="329" on="1"/>
        <pt x="287" y="243" on="0"/>
        <pt x="405" y="155" on="0"/>
        <pt x="517" y="155" on="1"/>
        <pt x="701" y="155" on="1"/>
        <pt x="687" y="229" on="0"/>
        <pt x="659" y="368" on="0"/>
        <pt x="611" y="475" on="0"/>
        <pt x="536" y="540" on="0"/>
        <pt x="477" y="540" on="1"/>
        <pt x="421" y="540" on="0"/>
        <pt x="335" y="481" on="0"/>
        <pt x="287" y="383" on="0"/>
      </contour>
      <contour>
        <pt x="1415" y="540" on="1"/>
        <pt x="1354" y="540" on="0"/>
        <pt x="1270" y="475" on="0"/>
        <pt x="1205" y="344" on="0"/>
        <pt x="1153" y="155" on="1"/>
        <pt x="1345" y="155" on="1"/>
        <pt x="1457" y="155" on="0"/>
        <pt x="1577" y="251" on="0"/>
        <pt x="1577" y="340" on="1"/>
        <pt x="1577" y="433" on="0"/>
        <pt x="1489" y="540" on="0"/>
      </contour>
    </TTGlyph>
    <TTGlyph name="uni0855" xMin="100" yMin="-326" xMax="1144" yMax="1009">
      <contour>
        <pt x="1144" y="1009" on="1"/>
        <pt x="1144" y="-326" on="1"/>
        <pt x="994" y="-326" on="1"/>
        <pt x="994" y="529" on="1"/>
        <pt x="929" y="481" on="0"/>
        <pt x="781" y="436" on="0"/>
        <pt x="685" y="436" on="1"/>
        <pt x="672" y="436" on="1"/>
        <pt x="657" y="437" on="1"/>
        <pt x="683" y="340" on="0"/>
        <pt x="683" y="271" on="1"/>
        <pt x="683" y="137" on="0"/>
        <pt x="515" y="0" on="0"/>
        <pt x="354" y="0" on="1"/>
        <pt x="100" y="0" on="1"/>
        <pt x="100" y="155" on="1"/>
        <pt x="359" y="155" on="1"/>
        <pt x="455" y="155" on="0"/>
        <pt x="533" y="216" on="0"/>
        <pt x="533" y="282" on="1"/>
        <pt x="533" y="396" on="0"/>
        <pt x="416" y="600" on="1"/>
        <pt x="540" y="690" on="1"/>
        <pt x="571" y="640" on="0"/>
        <pt x="599" y="587" on="1"/>
        <pt x="655" y="583" on="1"/>
        <pt x="766" y="583" on="0"/>
        <pt x="947" y="644" on="0"/>
        <pt x="994" y="697" on="1"/>
        <pt x="994" y="1009" on="1"/>
      </contour>
    </TTGlyph>
    <TTGlyph name="uni0856" xMin="140" yMin="0" xMax="1463" yMax="695">
      <contour>
        <pt x="1463" y="0" on="1"/>
        <pt x="275" y="0" on="1"/>
        <pt x="140" y="0" on="0"/>
        <pt x="140" y="128" on="1"/>
        <pt x="140" y="236" on="0"/>
        <pt x="392" y="580" on="0"/>
        <pt x="541" y="695" on="1"/>
        <pt x="645" y="604" on="1"/>
        <pt x="540" y="512" on="0"/>
        <pt x="307" y="224" on="0"/>
        <pt x="287" y="155" on="1"/>
        <pt x="920" y="155" on="1"/>
        <pt x="915" y="178" on="0"/>
        <pt x="915" y="214" on="1"/>
        <pt x="915" y="315" on="0"/>
        <pt x="1115" y="577" on="0"/>
        <pt x="1268" y="695" on="1"/>
        <pt x="1372" y="604" on="1"/>
        <pt x="1247" y="502" on="0"/>
        <pt x="1065" y="282" on="0"/>
        <pt x="1065" y="229" on="1"/>
        <pt x="1065" y="182" on="0"/>
        <pt x="1128" y="155" on="0"/>
        <pt x="1196" y="155" on="1"/>
        <pt x="1463" y="155" on="1"/>
      </contour>
    </TTGlyph>
    <TTGlyph name="uni0857" xMin="133" yMin="-780" xMax="2205" yMax="695">
      <contour>
        <pt x="1148" y="681" on="1"/>
        <pt x="1210" y="551" on="0"/>
        <pt x="1376" y="110" on="0"/>
        <pt x="1615" y="-603" on="1"/>
        <pt x="1691" y="-527" on="0"/>
        <pt x="1971" y="-133" on="0"/>
        <pt x="2038" y="0" on="1"/>
        <pt x="1776" y="0" on="1"/>
        <pt x="1700" y="0" on="0"/>
        <pt x="1621" y="73" on="0"/>
        <pt x="1621" y="141" on="1"/>
        <pt x="1621" y="255" on="0"/>
        <pt x="1871" y="602" on="0"/>
        <pt x="2003" y="694" on="1"/>
        <pt x="2100" y="597" on="1"/>
        <pt x="1975" y="499" on="0"/>
        <pt x="1768" y="223" on="0"/>
        <pt x="1761" y="155" on="1"/>
        <pt x="2101" y="155" on="1"/>
        <pt x="2147" y="155" on="0"/>
        <pt x="2205" y="107" on="0"/>
        <pt x="2205" y="61" on="1"/>
        <pt x="2205" y="27" on="0"/>
        <pt x="2192" y="-6" on="1"/>
        <pt x="2121" y="-179" on="0"/>
        <pt x="1776" y="-650" on="0"/>
        <pt x="1637" y="-780" on="1"/>
        <pt x="1529" y="-780" on="1"/>
        <pt x="1462" y="-628" on="0"/>
        <pt x="1324" y="-232" on="1"/>
        <pt x="1241" y="0" on="1"/>
        <pt x="268" y="0" on="1"/>
        <pt x="133" y="0" on="0"/>
        <pt x="133" y="128" on="1"/>
        <pt x="133" y="236" on="0"/>
        <pt x="385" y="580" on="0"/>
        <pt x="534" y="695" on="1"/>
        <pt x="638" y="604" on="1"/>
        <pt x="533" y="512" on="0"/>
        <pt x="300" y="224" on="0"/>
        <pt x="280" y="155" on="1"/>
        <pt x="1187" y="155" on="1"/>
        <pt x="1083" y="452" on="0"/>
        <pt x="1006" y="615" on="1"/>
      </contour>
    </TTGlyph>
    <TTGlyph name="uni0858" xMin="116" yMin="-826" xMax="839" yMax="739">
      <contour>
        <pt x="793" y="-37" on="1"/>
        <pt x="644" y="-131" on="0"/>
        <pt x="290" y="-403" on="0"/>
        <pt x="256" y="-449" on="1"/>
        <pt x="284" y="-477" on="0"/>
        <pt x="645" y="-613" on="0"/>
        <pt x="839" y="-668" on="1"/>
        <pt x="782" y="-826" on="1"/>
        <pt x="654" y="-796" on="0"/>
        <pt x="233" y="-638" on="0"/>
        <pt x="116" y="-544" on="0"/>
        <pt x="116" y="-477" on="1"/>
        <pt x="116" y="-390" on="0"/>
        <pt x="248" y="-238" on="0"/>
        <pt x="431" y="-112" on="1"/>
        <pt x="568" y="-17" on="1"/>
        <pt x="380" y="17" on="0"/>
        <pt x="293" y="43" on="1"/>
        <pt x="185" y="74" on="0"/>
        <pt x="185" y="173" on="1"/>
        <pt x="185" y="225" on="0"/>
        <pt x="226" y="307" on="0"/>
        <pt x="326" y="419" on="0"/>
        <pt x="493" y="568" on="0"/>
        <pt x="667" y="697" on="0"/>
        <pt x="737" y="739" on="1"/>
        <pt x="818" y="614" on="1"/>
        <pt x="762" y="578" on="0"/>
        <pt x="536" y="407" on="0"/>
        <pt x="336" y="229" on="0"/>
        <pt x="320" y="196" on="1"/>
        <pt x="354" y="182" on="0"/>
        <pt x="682" y="115" on="0"/>
        <pt x="793" y="96" on="1"/>
      </contour>
    </TTGlyph>
    <TTGlyph name="uni0859" xMin="-263" yMin="-357" xMax="263" yMax="-150">
      <contour>
        <pt x="-263" y="-253" on="1"/>
        <pt x="-263" y="-199" on="0"/>
        <pt x="-209" y="-150" on="0"/>
        <pt x="-171" y="-150" on="1"/>
        <pt x="-134" y="-150" on="0"/>
        <pt x="-80" y="-199" on="0"/>
        <pt x="-80" y="-253" on="1"/>
        <pt x="-80" y="-306" on="0"/>
        <pt x="-134" y="-357" on="0"/>
        <pt x="-171" y="-357" on="1"/>
        <pt x="-209" y="-357" on="0"/>
        <pt x="-263" y="-306" on="0"/>
      </contour>
      <contour>
        <pt x="80" y="-253" on="1"/>
        <pt x="80" y="-199" on="0"/>
        <pt x="132" y="-150" on="0"/>
        <pt x="171" y="-150" on="1"/>
        <pt x="214" y="-150" on="0"/>
        <pt x="263" y="-207" on="0"/>
        <pt x="263" y="-253" on="1"/>
        <pt x="263" y="-306" on="0"/>
        <pt x="209" y="-357" on="0"/>
        <pt x="171" y="-357" on="1"/>
        <pt x="132" y="-357" on="0"/>
        <pt x="80" y="-306" on="0"/>
      </contour>
    </TTGlyph>
    <TTGlyph name="uni085A" xMin="-253" yMin="-331" xMax="253" yMax="-177">
      <contour>
        <pt x="-253" y="-177" on="1"/>
        <pt x="253" y="-177" on="1"/>
        <pt x="253" y="-331" on="1"/>
        <pt x="-253" y="-331" on="1"/>
      </contour>
    </TTGlyph>
    <TTGlyph name="uni085B" xMin="-92" yMin="-357" xMax="91" yMax="-150">
      <contour>
        <pt x="-92" y="-253" on="1"/>
        <pt x="-92" y="-199" on="0"/>
        <pt x="-38" y="-150" on="0"/>
        <pt x="0" y="-150" on="1"/>
        <pt x="37" y="-150" on="0"/>
        <pt x="91" y="-199" on="0"/>
        <pt x="91" y="-253" on="1"/>
        <pt x="91" y="-306" on="0"/>
        <pt x="37" y="-357" on="0"/>
        <pt x="0" y="-357" on="1"/>
        <pt x="-38" y="-357" on="0"/>
        <pt x="-92" y="-306" on="0"/>
      </contour>
    </TTGlyph>
    <TTGlyph name="uni085E" xMin="160" yMin="-304" xMax="980" yMax="516">
      <contour>
        <pt x="400" y="106" on="1"/>
        <pt x="400" y="32" on="0"/>
        <pt x="496" y="-64" on="0"/>
        <pt x="570" y="-64" on="1"/>
        <pt x="640" y="-64" on="0"/>
        <pt x="740" y="35" on="0"/>
        <pt x="740" y="106" on="1"/>
        <pt x="740" y="180" on="0"/>
        <pt x="644" y="276" on="0"/>
        <pt x="570" y="276" on="1"/>
        <pt x="500" y="276" on="0"/>
        <pt x="400" y="177" on="0"/>
      </contour>
      <contour>
        <pt x="340" y="106" on="1"/>
        <pt x="340" y="201" on="0"/>
        <pt x="476" y="336" on="0"/>
        <pt x="570" y="336" on="1"/>
        <pt x="668" y="336" on="0"/>
        <pt x="800" y="206" on="0"/>
        <pt x="800" y="106" on="1"/>
        <pt x="800" y="11" on="0"/>
        <pt x="664" y="-124" on="0"/>
        <pt x="570" y="-124" on="1"/>
        <pt x="472" y="-124" on="0"/>
        <pt x="340" y="6" on="0"/>
      </contour>
      <contour>
        <pt x="220" y="106" on="1"/>
        <pt x="220" y="2" on="0"/>
        <pt x="308" y="-157" on="0"/>
        <pt x="470" y="-244" on="0"/>
        <pt x="570" y="-244" on="1"/>
        <pt x="666" y="-244" on="0"/>
        <pt x="828" y="-153" on="0"/>
        <pt x="920" y="10" on="0"/>
        <pt x="920" y="106" on="1"/>
        <pt x="920" y="210" on="0"/>
        <pt x="832" y="369" on="0"/>
        <pt x="670" y="456" on="0"/>
        <pt x="570" y="456" on="1"/>
        <pt x="474" y="456" on="0"/>
        <pt x="312" y="365" on="0"/>
        <pt x="220" y="202" on="0"/>
      </contour>
      <contour>
        <pt x="160" y="106" on="1"/>
        <pt x="160" y="218" on="0"/>
        <pt x="268" y="408" on="0"/>
        <pt x="460" y="516" on="0"/>
        <pt x="570" y="516" on="1"/>
        <pt x="750" y="516" on="0"/>
        <pt x="980" y="287" on="0"/>
        <pt x="980" y="106" on="1"/>
        <pt x="980" y="-7" on="0"/>
        <pt x="871" y="-196" on="0"/>
        <pt x="681" y="-304" on="0"/>
        <pt x="570" y="-304" on="1"/>
        <pt x="390" y="-304" on="0"/>
        <pt x="160" y="-75" on="0"/>
      </contour>
    </TTGlyph>
</ttFont>
